<svg width="12" height="12" viewBox="0 0 12 12" fill="none" xmlns="http://www.w3.org/2000/svg">
<path d="M8.8125 5.67188V5.95312C8.8125 6.10781 8.68594 6.23438 8.53125 6.23438H6.23438V8.53125C6.23438 8.68594 6.10781 8.8125 5.95312 8.8125H5.67188C5.51719 8.8125 5.39062 8.68594 5.39062 8.53125V6.23438H3.09375C2.93906 6.23438 2.8125 6.10781 2.8125 5.95312V5.67188C2.8125 5.51719 2.93906 5.39062 3.09375 5.39062H5.39062V3.09375C5.39062 2.93906 5.51719 2.8125 5.67188 2.8125H5.95312C6.10781 2.8125 6.23438 2.93906 6.23438 3.09375V5.39062H8.53125C8.68594 5.39062 8.8125 5.51719 8.8125 5.67188ZM11.625 5.8125C11.625 9.02344 9.02344 11.625 5.8125 11.625C2.60156 11.625 0 9.02344 0 5.8125C0 2.60156 2.60156 0 5.8125 0C9.02344 0 11.625 2.60156 11.625 5.8125ZM10.875 5.8125C10.875 3.00234 8.59453 0.75 5.8125 0.75C3.00234 0.75 0.75 3.03047 0.75 5.8125C0.75 8.62266 3.03047 10.875 5.8125 10.875C8.62266 10.875 10.875 8.59453 10.875 5.8125Z" fill="white"/>
</svg>
