<svg width="21" height="21" viewBox="0 0 21 21" fill="none" xmlns="http://www.w3.org/2000/svg">
<path d="M9.8094 18.7021C8.33515 18.7016 6.89417 18.2583 5.66865 17.4284C4.44313 16.5984 3.4881 15.4191 2.92431 14.0395C2.36052 12.6599 2.2133 11.1419 2.50125 9.6776C2.7892 8.21325 3.49939 6.86825 4.54204 5.81266C5.58469 4.75707 6.91296 4.03829 8.35892 3.74721C9.80488 3.45613 11.3036 3.6058 12.6656 4.17732C14.0275 4.74884 15.1916 5.71653 16.0106 6.95804C16.8296 8.19956 17.2667 9.65914 17.2667 11.1522C17.2667 12.144 17.0738 13.1259 16.699 14.0421C16.3242 14.9583 15.7749 15.7907 15.0824 16.4918C14.3898 17.1929 13.5677 17.749 12.663 18.1283C11.7582 18.5075 10.7886 18.7025 9.8094 18.7021ZM9.8094 18.0726C11.1608 18.0724 12.4818 17.6664 13.6053 16.9058C14.7289 16.1453 15.6045 15.0644 16.1215 13.7999C16.6386 12.5353 16.7737 11.1439 16.51 9.80158C16.2462 8.45922 15.5954 7.22622 14.6398 6.25849C13.6841 5.29076 12.4666 4.63175 11.1412 4.3648C9.81573 4.09786 8.4419 4.23496 7.1934 4.75877C5.9449 5.28258 4.8778 6.16958 4.12703 7.30761C3.37626 8.44563 2.97554 9.78357 2.97554 11.1522C2.97825 12.9867 3.69924 14.7452 4.98036 16.042C6.26147 17.3388 7.99812 18.068 9.8094 18.0698" fill="#2375A4"/>
<path d="M14.1577 11.4674H10.1192V15.5567C10.1215 15.5994 10.1152 15.6421 10.1007 15.6823C10.0861 15.7225 10.0636 15.7592 10.0346 15.7903C10.0055 15.8214 9.97055 15.8461 9.93174 15.863C9.89293 15.8799 9.85113 15.8887 9.80888 15.8887C9.76663 15.8887 9.72483 15.8799 9.68602 15.863C9.64721 15.8461 9.61222 15.8214 9.58317 15.7903C9.55413 15.7592 9.53164 15.7225 9.51709 15.6823C9.50254 15.6421 9.49623 15.5994 9.49855 15.5567V11.4674H5.46095C5.37852 11.4674 5.29946 11.4342 5.24118 11.3752C5.18289 11.3162 5.15015 11.2361 5.15015 11.1526C5.15015 11.0691 5.18289 10.9891 5.24118 10.93C5.29946 10.871 5.37852 10.8378 5.46095 10.8378H9.49855V6.74859C9.49623 6.70587 9.50254 6.66311 9.51709 6.62294C9.53164 6.58277 9.55413 6.54602 9.58317 6.51495C9.61222 6.48388 9.64721 6.45913 9.68602 6.44221C9.72483 6.4253 9.76663 6.41657 9.80888 6.41657C9.85113 6.41657 9.89293 6.4253 9.93174 6.44221C9.97055 6.45913 10.0055 6.48388 10.0346 6.51495C10.0636 6.54602 10.0861 6.58277 10.1007 6.62294C10.1152 6.66311 10.1215 6.70587 10.1192 6.74859V10.8378H14.1577C14.2402 10.8378 14.3192 10.871 14.3775 10.93C14.4358 10.9891 14.4685 11.0691 14.4685 11.1526C14.4685 11.2361 14.4358 11.3162 14.3775 11.3752C14.3192 11.4342 14.2402 11.4674 14.1577 11.4674Z" fill="#2375A4"/>
</svg>