<svg width="26" height="27" viewBox="0 0 26 27" fill="none" xmlns="http://www.w3.org/2000/svg">
<path d="M16.8161 18.6804C16.8161 18.5348 16.7595 18.3952 16.6588 18.2923C16.5581 18.1893 16.4215 18.1315 16.279 18.1315H14.6661V11.0007C14.6661 10.8551 14.6095 10.7155 14.5088 10.6126C14.4081 10.5097 14.2715 10.4518 14.129 10.4518H10.3742C10.2317 10.4518 10.0951 10.5097 9.99439 10.6126C9.89366 10.7155 9.83708 10.8551 9.83708 11.0007V13.1947C9.83708 13.3403 9.89366 13.4799 9.99439 13.5828C10.0951 13.6858 10.2317 13.7436 10.3742 13.7436H11.4484V18.1315H9.83546C9.6933 18.1319 9.5571 18.19 9.45672 18.2928C9.35635 18.3957 9.29998 18.5351 9.29998 18.6804V20.8744C9.29998 21.0196 9.35635 21.159 9.45672 21.2619C9.5571 21.3648 9.6933 21.4228 9.83546 21.4233H16.2774C16.4198 21.4233 16.5565 21.3654 16.6572 21.2625C16.7579 21.1595 16.8145 21.0199 16.8145 20.8744V18.6804H16.8161ZM10.9113 7.16007C10.9113 7.59399 11.0372 8.01817 11.2731 8.37896C11.509 8.73976 11.8442 9.02096 12.2365 9.18702C12.6288 9.35307 13.0604 9.39652 13.4769 9.31186C13.8933 9.22721 14.2758 9.01826 14.576 8.71143C14.8763 8.4046 15.0807 8.01367 15.1636 7.58809C15.2464 7.1625 15.2039 6.72137 15.0414 6.32047C14.8789 5.91958 14.6038 5.57693 14.2507 5.33586C13.8977 5.09478 13.4826 4.96611 13.058 4.96611C12.4888 4.96655 11.943 5.19783 11.5405 5.60919C11.138 6.02054 10.9117 6.57833 10.9113 7.16007ZM25.9403 13.1947C25.9403 15.7985 25.1848 18.3439 23.7693 20.509C22.3537 22.674 20.3418 24.3615 17.9879 25.3579C15.6339 26.3544 13.0438 26.6151 10.5448 26.1071C8.04593 25.5991 5.75053 24.3452 3.94891 22.504C2.1473 20.6628 0.920381 18.317 0.423316 15.7631C-0.0737488 13.2093 0.181363 10.5622 1.15639 8.15651C2.13142 5.75085 3.78257 3.69469 5.90105 2.24806C8.01952 0.801433 10.5102 0.0292969 13.058 0.0292969C14.7498 0.0292969 16.4249 0.36983 17.9879 1.03145C19.5508 1.69307 20.971 2.66283 22.1672 3.88535C23.3634 5.10787 24.3123 6.55921 24.9597 8.15651C25.6071 9.7538 25.9403 11.4658 25.9403 13.1947ZM13.5951 18.6804V11.548H10.9113V12.6458H11.9855C12.1268 12.6475 12.2618 12.7061 12.3611 12.8089C12.4604 12.9116 12.5161 13.0502 12.5161 13.1947V18.6804C12.5161 18.8257 12.4597 18.9651 12.3594 19.0679C12.259 19.1708 12.1228 19.2289 11.9806 19.2293H10.3677V20.3255H15.7419V19.2293H14.129C13.9866 19.2293 13.85 19.1715 13.7492 19.0685C13.6485 18.9656 13.5919 18.826 13.5919 18.6804H13.5951ZM11.9822 7.16007C11.9822 6.94287 12.0453 6.73056 12.1634 6.54999C12.2815 6.36942 12.4494 6.22871 12.6457 6.14567C12.8421 6.06263 13.0582 6.04099 13.2666 6.08348C13.475 6.12597 13.6664 6.23069 13.8166 6.38439C13.9667 6.53808 14.0689 6.73385 14.1102 6.94691C14.1514 7.15997 14.1299 7.38075 14.0484 7.58132C13.9668 7.78189 13.8289 7.95323 13.652 8.07366C13.4752 8.19409 13.2673 8.25819 13.0548 8.25787C12.9138 8.25787 12.7742 8.22946 12.644 8.17427C12.5138 8.11908 12.3954 8.03819 12.2958 7.93623C12.1962 7.83427 12.1172 7.71323 12.0634 7.58005C12.0096 7.44687 11.982 7.30415 11.9822 7.16007Z" fill="#2375A4"/>
</svg>
