<svg width="30" height="30" viewBox="0 0 30 30" fill="none" xmlns="http://www.w3.org/2000/svg">
<path d="M14.4548 7.89883C14.2423 7.89883 14.0346 7.96325 13.8579 8.08395C13.6812 8.20466 13.5435 8.37621 13.4623 8.5769C13.381 8.77759 13.3598 8.99841 13.4014 9.21141C13.443 9.4244 13.5455 9.62001 13.6958 9.77348C13.8462 9.92694 14.0378 10.0314 14.2463 10.0735C14.4547 10.1157 14.6708 10.0937 14.867 10.0104C15.0633 9.92705 15.2309 9.78608 15.3488 9.60534C15.4666 9.42459 15.5294 9.21217 15.529 8.99498C15.5286 8.70411 15.4152 8.4253 15.2138 8.21978C15.0124 8.01426 14.7395 7.89883 14.4548 7.89883ZM14.4548 11.1955C14.0302 11.1955 13.6152 11.0669 13.2622 10.8258C12.9091 10.5847 12.634 10.2421 12.4715 9.84116C12.309 9.44027 12.2665 8.99914 12.3493 8.57355C12.4322 8.14797 12.6366 7.75704 12.9368 7.45021C13.2371 7.14338 13.6196 6.93443 14.036 6.84977C14.4525 6.76512 14.8841 6.80857 15.2764 6.97462C15.6686 7.14068 16.0039 7.42188 16.2398 7.78268C16.4757 8.14347 16.6016 8.56765 16.6016 9.00157C16.5995 9.58217 16.3724 10.1383 15.9701 10.5482C15.5678 10.9581 15.023 11.1885 14.4548 11.1889V11.1955ZM11.7742 22.1604H17.1419V21.0642H15.529C15.388 21.062 15.2534 21.0033 15.1545 20.9006C15.0555 20.7978 15 20.6595 15 20.5153V13.3829H12.3081V14.4807H13.3871C13.5295 14.4807 13.6662 14.5385 13.7669 14.6415C13.8676 14.7444 13.9242 14.884 13.9242 15.0296V20.5153C13.9242 20.6609 13.8676 20.8005 13.7669 20.9034C13.6662 21.0064 13.5295 21.0642 13.3871 21.0642H11.7742V22.1604ZM17.679 23.2582H11.2339C11.0914 23.2582 10.9548 23.2003 10.8541 23.0974C10.7534 22.9945 10.6968 22.8548 10.6968 22.7093V20.5153C10.6968 20.3697 10.7534 20.2301 10.8541 20.1272C10.9548 20.0242 11.0914 19.9664 11.2339 19.9664H12.8468V15.5785H11.7742C11.6317 15.5785 11.4951 15.5207 11.3944 15.4177C11.2937 15.3148 11.2371 15.1752 11.2371 15.0296V12.8356C11.2371 12.6901 11.2937 12.5504 11.3944 12.4475C11.4951 12.3446 11.6317 12.2867 11.7742 12.2867H15.5323C15.6744 12.2872 15.8106 12.3452 15.911 12.4481C16.0114 12.551 16.0677 12.6903 16.0677 12.8356V19.9664H17.6806C17.8231 19.9664 17.9597 20.0242 18.0604 20.1272C18.1612 20.2301 18.2177 20.3697 18.2177 20.5153V22.7093C18.2177 22.8548 18.1612 22.9945 18.0604 23.0974C17.9597 23.2003 17.8231 23.2582 17.6806 23.2582H17.679Z" fill="#2375A4"/>
<path d="M14.4548 1.86426C11.9069 1.86426 9.41625 2.63639 7.29777 4.08303C5.1793 5.52966 3.52815 7.58581 2.55312 9.99147C1.57809 12.3971 1.32298 15.0442 1.82004 17.5981C2.31711 20.1519 3.54403 22.4978 5.34564 24.339C7.14726 26.1802 9.44266 27.4341 11.9416 27.9421C14.4405 28.4501 17.0307 28.1893 19.3846 27.1929C21.7385 26.1964 23.7505 24.509 25.166 22.3439C26.5815 20.1789 27.337 17.6335 27.337 15.0296C27.337 11.538 25.9798 8.1893 23.5639 5.72031C21.148 3.25132 17.8714 1.86426 14.4548 1.86426ZM14.4548 2.96041C16.7906 2.96009 19.074 3.66766 21.0163 4.99364C22.9586 6.31963 24.4725 8.20447 25.3666 10.4098C26.2607 12.6151 26.4948 15.0419 26.0393 17.3832C25.5838 19.7245 24.4592 21.8752 22.8077 23.5633C21.1561 25.2514 19.0518 26.401 16.7609 26.8668C14.47 27.3327 12.0954 27.0938 9.93739 26.1803C7.77936 25.2669 5.93485 23.7199 4.63711 21.7351C3.33938 19.7503 2.64671 17.4168 2.64671 15.0296C2.65183 11.8312 3.89769 8.7653 6.11116 6.5041C8.32463 4.24291 11.3251 2.97093 14.4548 2.96701" fill="#2375A4"/>
</svg>
