<svg width="14" height="14" viewBox="0 0 14 14" fill="none" xmlns="http://www.w3.org/2000/svg">
<path fill-rule="evenodd" clip-rule="evenodd" d="M4.66667 0.777778C4.66667 0.348227 4.31845 0 3.88889 0C3.45934 0 3.11111 0.348227 3.11111 0.777778V1.55558C2.75409 1.5558 2.44281 1.558 2.18165 1.57933C1.87416 1.60445 1.56832 1.65993 1.27402 1.80987C0.834984 2.03358 0.478023 2.39053 0.254319 2.82958C0.104371 3.12387 0.0488997 3.42971 0.0237775 3.7372C-2.25291e-05 4.02852 -1.47753e-05 4.38223 7.8027e-07 4.79222V4.79225V10.7634C-1.47753e-05 11.1733 -2.25291e-05 11.5271 0.0237775 11.8183C0.0488997 12.1259 0.104371 12.4317 0.254319 12.726C0.478023 13.1651 0.834984 13.522 1.27402 13.7457C1.56832 13.8956 1.87416 13.9511 2.18165 13.9762C2.47295 14 2.82674 14 3.23669 14H3.23671H10.7634C11.1734 14 11.5271 14 11.8183 13.9762C12.1259 13.9511 12.4317 13.8956 12.726 13.7457C13.1651 13.522 13.522 13.1651 13.7457 12.726C13.8956 12.4317 13.9511 12.1259 13.9762 11.8183C14 11.5271 14 11.1733 14 10.7634V4.79223C14 4.38223 14 4.02853 13.9762 3.7372C13.9511 3.42971 13.8956 3.12387 13.7457 2.82958C13.522 2.39053 13.1651 2.03358 12.726 1.80987C12.4317 1.65993 12.1259 1.60445 11.8183 1.57933C11.5572 1.558 11.2459 1.5558 10.8889 1.55558V0.777778C10.8889 0.348227 10.5407 0 10.1111 0C9.68155 0 9.33333 0.348227 9.33333 0.777778V1.55556H4.66667V0.777778ZM4.66667 6.22222C4.66667 6.65179 4.31845 7 3.88889 7C3.45934 7 3.11111 6.65179 3.11111 6.22222C3.11111 5.79266 3.45934 5.44444 3.88889 5.44444C4.31845 5.44444 4.66667 5.79266 4.66667 6.22222ZM7 7C7.42957 7 7.77778 6.65179 7.77778 6.22222C7.77778 5.79266 7.42957 5.44444 7 5.44444C6.57043 5.44444 6.22222 5.79266 6.22222 6.22222C6.22222 6.65179 6.57043 7 7 7ZM10.1111 7C10.5407 7 10.8889 6.65179 10.8889 6.22222C10.8889 5.79266 10.5407 5.44444 10.1111 5.44444C9.68155 5.44444 9.33333 5.79266 9.33333 6.22222C9.33333 6.65179 9.68155 7 10.1111 7ZM7 10.1111C7.42957 10.1111 7.77778 9.7629 7.77778 9.33333C7.77778 8.90377 7.42957 8.55556 7 8.55556C6.57043 8.55556 6.22222 8.90377 6.22222 9.33333C6.22222 9.7629 6.57043 10.1111 7 10.1111ZM4.66667 9.33333C4.66667 9.7629 4.31845 10.1111 3.88889 10.1111C3.45934 10.1111 3.11111 9.7629 3.11111 9.33333C3.11111 8.90377 3.45934 8.55556 3.88889 8.55556C4.31845 8.55556 4.66667 8.90377 4.66667 9.33333Z" fill="#636669"/>
</svg>
