<svg width="34" height="34" viewBox="0 0 34 34" fill="none" xmlns="http://www.w3.org/2000/svg">
<path fill-rule="evenodd" clip-rule="evenodd" d="M22.0686 3.13353C19.9809 -1.04449 14.0195 -1.04451 11.9317 3.13349L0.605057 25.7998C-1.27781 29.5675 1.46178 34 5.67348 34H28.3266C32.5382 34 35.2778 29.5677 33.3949 25.7998L22.0686 3.13353ZM15.1112 11.3324C15.1112 10.2892 15.9567 9.44347 16.9999 9.44347C18.043 9.44347 18.8886 10.2892 18.8886 11.3324V18.8882C18.8886 19.9315 18.043 20.7772 16.9999 20.7772C15.9567 20.7772 15.1112 19.9315 15.1112 18.8882V11.3324ZM15.1112 24.5552C15.1112 23.5121 15.9567 22.6662 16.9999 22.6662C18.043 22.6662 18.8886 23.5121 18.8886 24.5552C18.8886 25.5984 18.043 26.4441 16.9999 26.4441C15.9567 26.4441 15.1112 25.5984 15.1112 24.5552Z" fill="#CF3D28"/>
</svg>
