<svg width="94" height="79" viewBox="0 0 94 79" fill="none" xmlns="http://www.w3.org/2000/svg">
<circle cx="44.1863" cy="42.8475" r="30.7966" fill="white"/>
<path d="M61.8034 32.2089L36.1302 57.8588C36.0115 57.9784 35.8703 58.0733 35.7147 58.138C35.5591 58.2028 35.3923 58.2361 35.2237 58.2361C35.0552 58.2361 34.8883 58.2028 34.7328 58.138C34.5772 58.0733 34.436 57.9784 34.3173 57.8588L25.3301 48.8837C25.0892 48.643 24.9539 48.3165 24.9539 47.9761C24.9539 47.6357 25.0892 47.3093 25.3301 47.0686C25.571 46.8279 25.8978 46.6927 26.2385 46.6927C26.5792 46.6927 26.9059 46.8279 27.1469 47.0686L35.2237 55.1381L59.9867 30.3976C60.1037 30.27 60.2454 30.1672 60.4032 30.0957C60.5611 30.0242 60.7317 29.9853 60.905 29.9814C61.0783 29.9775 61.2505 30.0087 61.4114 30.073C61.5723 30.1374 61.7185 30.2336 61.8412 30.356C61.9638 30.4783 62.0605 30.6241 62.1253 30.7847C62.19 30.9453 62.2216 31.1174 62.2181 31.2905C62.2145 31.4636 62.176 31.6342 62.1047 31.792C62.0334 31.9499 61.9309 32.0917 61.8034 32.2089ZM44.207 12.0658C38.1141 12.0666 32.1583 13.8724 27.0926 17.2549C22.0269 20.6374 18.0789 25.4447 15.7478 31.069C13.4166 36.6932 12.8071 42.8817 13.9962 48.852C15.1854 54.8224 18.1198 60.3063 22.4284 64.6105C26.737 68.9147 32.2263 71.8457 38.2022 73.033C44.178 74.2203 50.3721 73.6106 56.0012 71.2808C61.6302 68.9511 66.4414 65.0061 69.8263 59.9446C73.2113 54.883 75.018 48.9324 75.018 42.845C75.018 38.8027 74.221 34.8 72.6726 31.0654C71.1241 27.3308 68.8545 23.9376 65.9934 21.0794C63.1323 18.2213 59.7357 15.9542 55.9976 14.4076C52.2595 12.861 48.253 12.0653 44.207 12.0658Z" fill="#86BC25"/>
</svg>
