<svg width="42" height="41" viewBox="0 0 42 41" fill="none" xmlns="http://www.w3.org/2000/svg">
<path d="M40.5 20.5C40.5 30.9595 31.8038 39.5 21 39.5C10.1962 39.5 1.5 30.9595 1.5 20.5C1.5 10.0405 10.1962 1.5 21 1.5C31.8038 1.5 40.5 10.0405 40.5 20.5Z" stroke="#474545" stroke-width="3"/>
<path d="M28.5631 15.0627L15.9101 26.7463L11.4369 22.6157C11.2251 22.4202 10.8818 22.4202 10.67 22.6157L10.1588 23.0878C9.94706 23.2833 9.94706 23.6003 10.1588 23.7959L15.5267 28.7526C15.7385 28.9481 16.0818 28.9481 16.2936 28.7526L29.8412 16.2429C30.0529 16.0473 30.0529 15.7303 29.8412 15.5347L29.3299 15.0627C29.1182 14.8671 28.7749 14.8671 28.5631 15.0627Z" fill="#474545"/>
</svg>