<svg width="14" height="14" viewBox="0 0 12 12" fill="none" xmlns="http://www.w3.org/2000/svg">
<path d="M10 6C10 5.44792 9.89583 4.92708 9.6875 4.4375C9.47917 3.95833 9.19271 3.53646 8.82812 3.17188C8.46354 2.80729 8.04167 2.52083 7.5625 2.3125C7.07292 2.10417 6.55208 2 6 2C5.44792 2 4.92708 2.10417 4.4375 2.3125C3.95833 2.52083 3.53646 2.80729 3.17188 3.17188C2.80729 3.53646 2.52083 3.95833 2.3125 4.4375C2.10417 4.92708 2 5.44792 2 6C2 6.55208 2.10417 7.07292 2.3125 7.5625C2.52083 8.04167 2.80729 8.46354 3.17188 8.82812C3.53646 9.19271 3.95833 9.47917 4.4375 9.6875C4.92708 9.89583 5.44792 10 6 10C6.55208 10 7.07292 9.89583 7.5625 9.6875C8.04167 9.47917 8.46354 9.19271 8.82812 8.82812C9.19271 8.46354 9.47917 8.04167 9.6875 7.5625C9.89583 7.07292 10 6.55208 10 6ZM12 6C12 6.83333 11.8438 7.60938 11.5312 8.32812C11.2188 9.05729 10.7865 9.69792 10.2344 10.25C9.69271 10.7917 9.05729 11.2188 8.32812 11.5312C7.60938 11.8438 6.83333 12 6 12C5.16667 12 4.39062 11.8438 3.67188 11.5312C2.94271 11.2188 2.30208 10.7917 1.75 10.25C1.20833 9.69792 0.78125 9.05729 0.46875 8.32812C0.15625 7.60938 0 6.83333 0 6C0 5.16667 0.15625 4.39062 0.46875 3.67188C0.78125 2.94271 1.20833 2.30729 1.75 1.76562C2.30208 1.21354 2.94271 0.78125 3.67188 0.46875C4.39062 0.15625 5.16667 0 6 0C6.83333 0 7.60938 0.15625 8.32812 0.46875C9.05729 0.78125 9.69271 1.21354 10.2344 1.76562C10.7865 2.30729 11.2188 2.94271 11.5312 3.67188C11.8438 4.39062 12 5.16667 12 6ZM5 3V6.42188L7.29688 8.70312L8.70312 7.29688L7 5.57812V3H5Z" fill="#75787B"/>
</svg>
