<svg width="20" height="21" viewBox="0 0 20 21" fill="none" xmlns="http://www.w3.org/2000/svg">
<path d="M10 0.5C8.02219 0.5 6.08879 1.08649 4.4443 2.1853C2.79981 3.28412 1.51809 4.8459 0.761209 6.67316C0.00433286 8.50042 -0.1937 10.5111 0.192152 12.4509C0.578004 14.3907 1.53041 16.1725 2.92894 17.5711C4.32746 18.9696 6.10929 19.922 8.0491 20.3078C9.98891 20.6937 11.9996 20.4957 13.8268 19.7388C15.6541 18.9819 17.2159 17.7002 18.3147 16.0557C19.4135 14.4112 20 12.4778 20 10.5C20 7.84783 18.9464 5.3043 17.0711 3.42893C15.1957 1.55357 12.6522 0.5 10 0.5ZM10 19.1667C8.2859 19.1667 6.61029 18.6584 5.18506 17.7061C3.75984 16.7538 2.64901 15.4002 1.99305 13.8166C1.33709 12.233 1.16546 10.4904 1.49987 8.80921C1.83427 7.12805 2.65969 5.5838 3.87174 4.37174C5.0838 3.15969 6.62805 2.33427 8.30922 1.99986C9.99039 1.66546 11.733 1.83708 13.3166 2.49304C14.9002 3.149 16.2538 4.25983 17.2061 5.68506C18.1584 7.11028 18.6667 8.78589 18.6667 10.5C18.6667 12.7985 17.7536 15.0029 16.1283 16.6283C14.5029 18.2536 12.2985 19.1667 10 19.1667ZM13.14 8.02667C13.2642 8.15157 13.3339 8.32054 13.3339 8.49667C13.3339 8.67279 13.2642 8.84176 13.14 8.96667L10.4733 11.6333C10.3484 11.7575 10.1795 11.8272 10.0033 11.8272C9.82721 11.8272 9.65824 11.7575 9.53333 11.6333L4.86667 6.96667C4.75745 6.83913 4.70038 6.67508 4.70686 6.5073C4.71334 6.33951 4.7829 6.18035 4.90163 6.06162C5.02036 5.94289 5.17952 5.87334 5.3473 5.86686C5.51508 5.86038 5.67913 5.91745 5.80667 6.02667L10 10.2267L12.1933 8.03333C12.2549 7.97041 12.3283 7.92029 12.4093 7.88587C12.4903 7.85145 12.5773 7.83341 12.6653 7.83279C12.7533 7.83217 12.8405 7.84899 12.922 7.88226C13.0035 7.91553 13.0776 7.96461 13.14 8.02667ZM9.33334 4.5V3.83333C9.33334 3.65652 9.40357 3.48695 9.5286 3.36193C9.65362 3.2369 9.82319 3.16667 10 3.16667C10.1768 3.16667 10.3464 3.2369 10.4714 3.36193C10.5964 3.48695 10.6667 3.65652 10.6667 3.83333V4.5C10.6667 4.67681 10.5964 4.84638 10.4714 4.9714C10.3464 5.09643 10.1768 5.16667 10 5.16667C9.82319 5.16667 9.65362 5.09643 9.5286 4.9714C9.40357 4.84638 9.33334 4.67681 9.33334 4.5ZM10.6667 16.5V17.1667C10.6667 17.3435 10.5964 17.513 10.4714 17.6381C10.3464 17.7631 10.1768 17.8333 10 17.8333C9.82319 17.8333 9.65362 17.7631 9.5286 17.6381C9.40357 17.513 9.33334 17.3435 9.33334 17.1667V16.5C9.33334 16.3232 9.40357 16.1536 9.5286 16.0286C9.65362 15.9036 9.82319 15.8333 10 15.8333C10.1768 15.8333 10.3464 15.9036 10.4714 16.0286C10.5964 16.1536 10.6667 16.3232 10.6667 16.5ZM17.3333 10.5C17.3333 10.6768 17.2631 10.8464 17.1381 10.9714C17.013 11.0964 16.8435 11.1667 16.6667 11.1667H16C15.8232 11.1667 15.6536 11.0964 15.5286 10.9714C15.4036 10.8464 15.3333 10.6768 15.3333 10.5C15.3333 10.3232 15.4036 10.1536 15.5286 10.0286C15.6536 9.90357 15.8232 9.83333 16 9.83333H16.6667C16.8435 9.83333 17.013 9.90357 17.1381 10.0286C17.2631 10.1536 17.3333 10.3232 17.3333 10.5ZM4.66667 10.5C4.66667 10.6768 4.59643 10.8464 4.47141 10.9714C4.34638 11.0964 4.17681 11.1667 4 11.1667H3.33334C3.15653 11.1667 2.98696 11.0964 2.86193 10.9714C2.73691 10.8464 2.66667 10.6768 2.66667 10.5C2.66667 10.3232 2.73691 10.1536 2.86193 10.0286C2.98696 9.90357 3.15653 9.83333 3.33334 9.83333H4C4.17681 9.83333 4.34638 9.90357 4.47141 10.0286C4.59643 10.1536 4.66667 10.3232 4.66667 10.5Z" fill="black"/>
</svg>
