<svg width="32" height="32" viewBox="0 0 32 32" fill="none" xmlns="http://www.w3.org/2000/svg">
<path fill-rule="evenodd" clip-rule="evenodd" d="M8 0C3.58172 0 0 3.58172 0 8V24C0 28.4183 3.58172 32 8 32H24C28.4183 32 32 28.4183 32 24V8C32 3.58172 28.4183 0 24 0H8ZM12.9428 11.0572C12.4221 10.5365 11.5779 10.5365 11.0572 11.0572C10.5365 11.5779 10.5365 12.4221 11.0572 12.9428L14.1144 16L11.0572 19.0572C10.5365 19.5779 10.5365 20.4221 11.0572 20.9428C11.5779 21.4635 12.4221 21.4635 12.9428 20.9428L16 17.8856L19.0572 20.9428C19.5779 21.4635 20.4221 21.4635 20.9428 20.9428C21.4635 20.4221 21.4635 19.5779 20.9428 19.0572L17.8856 16L20.9428 12.9428C21.4635 12.4221 21.4635 11.5779 20.9428 11.0572C20.4221 10.5365 19.5779 10.5365 19.0572 11.0572L16 14.1144L12.9428 11.0572Z" fill="black"/>
</svg>
