<svg width="34" height="34" viewBox="0 0 34 34" fill="none" xmlns="http://www.w3.org/2000/svg">
<path fill-rule="evenodd" clip-rule="evenodd" d="M0.823499 4.12541C1.12587e-07 5.74164 0 7.85738 0 12.0889V21.9111C0 26.1426 1.12587e-07 28.2583 0.823499 29.8747C1.54789 31.2962 2.70374 32.4521 4.12541 33.1764C5.74164 34 7.85738 34 12.0889 34H21.9111C26.1426 34 28.2583 34 29.8747 33.1764C31.2962 32.4521 32.4521 31.2962 33.1764 29.8747C34 28.2583 34 26.1426 34 21.9111V12.0889C34 7.85738 34 5.74164 33.1764 4.12541C32.4521 2.70374 31.2962 1.54789 29.8747 0.823499C28.2583 1.12587e-07 26.1426 0 21.9111 0H12.0889C7.85738 0 5.74164 1.12587e-07 4.12541 0.823499C2.70374 1.54789 1.54789 2.70374 0.823499 4.12541ZM24.0023 14.5579C24.7399 13.8202 24.7399 12.6242 24.0023 11.8866C23.2647 11.1489 22.0686 11.1489 21.331 11.8866L15.1111 18.1065L12.669 15.6644C11.9313 14.9268 10.7353 14.9268 9.99768 15.6644C9.26003 16.402 9.26003 17.598 9.99768 18.3356L13.7755 22.1134C14.5131 22.851 15.7091 22.851 16.4467 22.1134L24.0023 14.5579Z" fill="#75BE00"/>
</svg>
