<svg width="18" height="18" viewBox="0 0 18 18" fill="none" xmlns="http://www.w3.org/2000/svg">
<path fill-rule="evenodd" clip-rule="evenodd" d="M9 0.25C4.15833 0.25 0.25 4.15833 0.25 9C0.25 13.8417 4.15833 17.75 9 17.75C13.8417 17.75 17.75 13.8417 17.75 9C17.75 4.15833 13.8417 0.25 9 0.25ZM9 16.5833C4.8 16.5833 1.41667 13.2 1.41667 9C1.41667 4.8 4.8 1.41667 9 1.41667C13.2 1.41667 16.5833 4.8 16.5833 9C16.5833 13.2 13.2 16.5833 9 16.5833ZM11.7417 6.84167C11.975 7.075 11.975 7.425 11.7417 7.65833L9.40833 9.99167C9.29167 10.1083 9.175 10.1667 9 10.1667C8.825 10.1667 8.70833 10.1083 8.59167 9.99167L4.50833 5.90833C4.275 5.675 4.275 5.325 4.50833 5.09167C4.74167 4.85833 5.09167 4.85833 5.325 5.09167L9 8.76667L10.925 6.84167C11.1583 6.60833 11.5083 6.60833 11.7417 6.84167ZM8.41667 3.75V3.16667C8.41667 2.81667 8.65 2.58333 9 2.58333C9.35 2.58333 9.58333 2.81667 9.58333 3.16667V3.75C9.58333 4.1 9.35 4.33333 9 4.33333C8.65 4.33333 8.41667 4.1 8.41667 3.75ZM9.58333 14.25V14.8333C9.58333 15.1833 9.35 15.4167 9 15.4167C8.65 15.4167 8.41667 15.1833 8.41667 14.8333V14.25C8.41667 13.9 8.65 13.6667 9 13.6667C9.35 13.6667 9.58333 13.9 9.58333 14.25ZM15.4167 9C15.4167 9.35 15.1833 9.58333 14.8333 9.58333H14.25C13.9 9.58333 13.6667 9.35 13.6667 9C13.6667 8.65 13.9 8.41667 14.25 8.41667H14.8333C15.1833 8.41667 15.4167 8.65 15.4167 9ZM4.33333 9C4.33333 9.35 4.1 9.58333 3.75 9.58333H3.16667C2.81667 9.58333 2.58333 9.35 2.58333 9C2.58333 8.65 2.81667 8.41667 3.16667 8.41667H3.75C4.1 8.41667 4.33333 8.65 4.33333 9Z" fill="black"/>
</svg>
