<svg width="15" height="16" viewBox="0 0 15 16" fill="none" xmlns="http://www.w3.org/2000/svg">
<path fill-rule="evenodd" clip-rule="evenodd" d="M9.73617 1.88244C8.81508 0.0391937 6.18507 0.0391854 5.264 1.88242L0.266937 11.8823C-0.56374 13.5445 0.644904 15.5 2.50301 15.5H12.497C14.3551 15.5 15.5637 13.5446 14.7331 11.8823L9.73617 1.88244ZM6.66669 5.4996C6.66669 5.03935 7.03974 4.66623 7.49995 4.66623C7.96016 4.66623 8.33321 5.03935 8.33321 5.4996V8.83305C8.33321 9.29332 7.96016 9.66642 7.49995 9.66642C7.03974 9.66642 6.66669 9.29332 6.66669 8.83305V5.4996ZM6.66669 11.3332C6.66669 10.873 7.03974 10.4998 7.49995 10.4998C7.96016 10.4998 8.33321 10.873 8.33321 11.3332C8.33321 11.7934 7.96016 12.1665 7.49995 12.1665C7.03974 12.1665 6.66669 11.7934 6.66669 11.3332Z" fill="#CF3D28"/>
</svg>
