<svg width="22" height="22" viewBox="0 0 22 22" fill="none" xmlns="http://www.w3.org/2000/svg">
<path d="M17.0452 15.2133C17.011 15.277 16.9612 15.33 16.9009 15.3669C16.8407 15.4038 16.7721 15.4233 16.7022 15.4234H5.67737C5.60752 15.4233 5.53897 15.4038 5.47872 15.3669C5.41848 15.3299 5.36871 15.2769 5.33453 15.2133C5.30035 15.1497 5.28297 15.0777 5.28419 15.0047C5.28541 14.9317 5.30517 14.8604 5.34145 14.798L10.8545 5.33803C10.8921 5.28118 10.9424 5.23472 11.001 5.20263C11.0596 5.17054 11.1248 5.15377 11.191 5.15377C11.2571 5.15377 11.3223 5.17054 11.3809 5.20263C11.4395 5.23472 11.4898 5.28118 11.5275 5.33803L17.0381 14.798C17.0743 14.8604 17.094 14.9317 17.0953 15.0047C17.0965 15.0776 17.0793 15.1496 17.0452 15.2133V15.2133ZM11.1904 1.02702C9.32199 1.02727 7.49563 1.60643 5.94223 2.69128C4.38884 3.77614 3.17818 5.31795 2.46334 7.12176C1.7485 8.92558 1.56159 10.9104 1.92624 12.8252C2.29089 14.74 3.19072 16.4988 4.51195 17.8793C5.83318 19.2597 7.51648 20.1998 9.34898 20.5806C11.1815 20.9614 13.0809 20.7658 14.807 20.0186C16.5332 19.2714 18.0085 18.0062 19.0465 16.3828C20.0845 14.7595 20.6386 12.851 20.6386 10.8986C20.6386 9.60214 20.3942 8.31838 19.9193 7.12062C19.4445 5.92287 18.7485 4.83458 17.8712 3.9179C16.9938 3.00123 15.9522 2.27412 14.8059 1.7781C13.6597 1.28208 12.4311 1.02686 11.1904 1.02702V1.02702Z" fill="#CF3D28"/>
<path d="M11.5844 8.84197V11.7217C11.5788 11.8268 11.535 11.9257 11.4619 11.9981C11.3887 12.0704 11.2918 12.1108 11.1911 12.1108C11.0904 12.1108 10.9935 12.0704 10.9203 11.9981C10.8472 11.9257 10.8033 11.8268 10.7978 11.7217V8.84197C10.7949 8.7861 10.8029 8.7302 10.8213 8.67768C10.8398 8.62515 10.8682 8.57711 10.9051 8.53648C10.9419 8.49585 10.9862 8.46349 11.0354 8.44137C11.0846 8.41925 11.1375 8.40785 11.1911 8.40785C11.2446 8.40785 11.2976 8.41925 11.3468 8.44137C11.396 8.46349 11.4403 8.49585 11.4771 8.53648C11.5139 8.57711 11.5424 8.62515 11.5609 8.67768C11.5793 8.7302 11.5873 8.7861 11.5844 8.84197ZM11.1905 13.7784C11.1126 13.7784 11.0364 13.7542 10.9717 13.709C10.9069 13.6638 10.8564 13.5995 10.8266 13.5243C10.7968 13.4491 10.789 13.3663 10.8042 13.2865C10.8194 13.2067 10.8569 13.1333 10.912 13.0758C10.9671 13.0182 11.0373 12.979 11.1137 12.9631C11.1901 12.9473 11.2693 12.9554 11.3412 12.9866C11.4132 13.0177 11.4747 13.0705 11.518 13.1381C11.5613 13.2058 11.5844 13.2854 11.5844 13.3668C11.5844 13.476 11.5429 13.5806 11.469 13.6578C11.3951 13.735 11.295 13.7784 11.1905 13.7784ZM6.38007 14.6003H16.0009L11.1905 6.34286L6.38007 14.6003V14.6003Z" fill="#CF3D28"/>
</svg>
