<svg width="21" height="21" viewBox="0 0 21 21" fill="none" xmlns="http://www.w3.org/2000/svg">
<path d="M16.4605 6.85444L8.12693 15.188C8.0884 15.2268 8.04257 15.2576 7.99207 15.2787C7.94157 15.2997 7.88741 15.3106 7.8327 15.3106C7.778 15.3106 7.72383 15.2997 7.67333 15.2787C7.62283 15.2576 7.577 15.2268 7.53847 15.188L4.62123 12.272C4.54303 12.1938 4.4991 12.0877 4.4991 11.9771C4.4991 11.8665 4.54303 11.7605 4.62123 11.6823C4.69943 11.6041 4.8055 11.5602 4.91609 11.5602C5.02668 11.5602 5.13274 11.6041 5.21094 11.6823L7.8327 14.304L15.8708 6.26599C15.9088 6.2245 15.9548 6.19113 16.006 6.16788C16.0572 6.14464 16.1126 6.13201 16.1689 6.13074C16.2251 6.12948 16.281 6.13961 16.3332 6.16052C16.3855 6.18143 16.4329 6.2127 16.4727 6.25244C16.5126 6.29217 16.5439 6.33956 16.565 6.39174C16.586 6.44392 16.5962 6.49981 16.5951 6.55606C16.5939 6.6123 16.5814 6.66773 16.5583 6.71901C16.5351 6.77029 16.5019 6.81636 16.4605 6.85444ZM10.7487 0.310059C8.77093 0.310306 6.83766 0.897007 5.19333 1.99597C3.549 3.09494 2.26747 4.65681 1.51079 6.48409C0.754105 8.31137 0.55625 10.322 0.942243 12.2617C1.32824 14.2015 2.28074 15.9832 3.67932 17.3816C5.07789 18.78 6.85972 19.7322 8.7995 20.118C10.7393 20.5037 12.7499 20.3056 14.5771 19.5487C16.4043 18.7918 17.966 17.5101 19.0647 15.8656C20.1635 14.2212 20.7499 12.2878 20.7499 10.3101C20.7499 8.99673 20.4912 7.69627 19.9886 6.48293C19.486 5.2696 18.7493 4.16715 17.8206 3.23855C16.8918 2.30995 15.7893 1.57338 14.5759 1.0709C13.3625 0.568431 12.062 0.309894 10.7487 0.310059Z" fill="#86BC25"/>
</svg>
