<svg width="22" height="22" viewBox="0 0 22 22" fill="none" xmlns="http://www.w3.org/2000/svg">
<path d="M11.2486 16.0568C11.1325 16.0568 11.0212 16.0107 10.9391 15.9286C10.857 15.8465 10.8109 15.7352 10.8109 15.6191C10.8109 15.503 10.857 15.3917 10.9391 15.3096C11.0212 15.2276 11.1325 15.1814 11.2486 15.1814C12.2359 15.1834 13.195 14.852 13.9703 14.2409C14.7456 13.6298 15.2918 12.7748 15.5203 11.8145C15.7487 10.8542 15.6461 9.84497 15.229 8.95031C14.8119 8.05564 14.1048 7.32803 13.2223 6.8854C12.3399 6.44278 11.3337 6.3111 10.367 6.5117C9.40031 6.7123 8.5297 7.23343 7.89631 7.99061C7.26293 8.74778 6.90389 9.69663 6.8774 10.6833C6.85091 11.6701 7.15853 12.6368 7.75038 13.4268V12.1125C7.75038 11.9965 7.7965 11.8851 7.8786 11.8031C7.9607 11.721 8.07205 11.6749 8.18815 11.6749C8.30426 11.6749 8.41561 11.721 8.49771 11.8031C8.5798 11.8851 8.62593 11.9965 8.62593 12.1125V14.3061C8.62593 14.4222 8.5798 14.5335 8.49771 14.6156C8.41561 14.6977 8.30426 14.7438 8.18815 14.7438H5.99928C5.93987 14.747 5.8804 14.7382 5.82454 14.7177C5.76867 14.6972 5.71757 14.6655 5.67435 14.6246C5.63113 14.5837 5.59671 14.5344 5.57319 14.4798C5.54966 14.4251 5.53753 14.3663 5.53753 14.3068C5.53753 14.2473 5.54966 14.1884 5.57319 14.1338C5.59671 14.0791 5.63113 14.0298 5.67435 13.9889C5.71757 13.948 5.76867 13.9164 5.82454 13.8959C5.8804 13.8754 5.93987 13.8665 5.99928 13.8698H6.99052C6.30403 12.9135 5.95922 11.7541 6.01157 10.5782C6.06392 9.40223 6.51037 8.27807 7.27912 7.38652C8.04787 6.49496 9.09423 5.88782 10.2499 5.66275C11.4056 5.43768 12.6034 5.60778 13.6507 6.14567C14.6979 6.68356 15.5338 7.55798 16.0238 8.62829C16.5138 9.6986 16.6295 10.9026 16.3523 12.0466C16.075 13.1906 15.4209 14.2081 14.4952 14.9355C13.5695 15.6628 12.426 16.0578 11.2486 16.0568ZM8.86256 8.85831C8.90321 8.81766 8.95148 8.78541 9.0046 8.76341C9.05772 8.7414 9.11466 8.73008 9.17216 8.73008C9.22966 8.73008 9.28659 8.7414 9.33972 8.76341C9.39284 8.78541 9.4411 8.81766 9.48176 8.85831L11.2486 10.6261L12.253 9.62324C12.3362 9.54704 12.4457 9.50592 12.5585 9.50846C12.6713 9.51099 12.7788 9.557 12.8585 9.63686C12.9383 9.71673 12.984 9.82429 12.9863 9.93709C12.9886 10.0499 12.9473 10.1592 12.8709 10.2423L11.5563 11.5566C11.5157 11.5974 11.4675 11.6298 11.4143 11.6519C11.3612 11.674 11.3042 11.6854 11.2467 11.6854C11.1891 11.6854 11.1321 11.674 11.079 11.6519C11.0259 11.6298 10.9776 11.5974 10.9371 11.5566L8.85993 9.47998C8.81927 9.43934 8.78701 9.39108 8.765 9.33798C8.74299 9.28487 8.73167 9.22794 8.73167 9.17046C8.73167 9.11297 8.74299 9.05605 8.765 9.00294C8.78701 8.94984 8.81927 8.90158 8.85993 8.86094L8.86256 8.85831ZM11.2486 0.315316C9.17198 0.315576 7.14204 0.931457 5.4155 2.08508C3.68896 3.2387 2.34335 4.87826 1.54883 6.79643C0.754313 8.71459 0.546565 10.8252 0.951859 12.8614C1.35715 14.8976 2.35728 16.768 3.82579 18.2359C5.29429 19.7039 7.16521 20.7035 9.20198 21.1084C11.2387 21.5134 13.3499 21.3054 15.2684 20.5109C17.187 19.7163 18.8268 18.3708 19.9805 16.6446C21.1342 14.9183 21.7499 12.8888 21.7499 10.8127C21.7506 9.4336 21.4795 8.06789 20.9521 6.7936C20.4246 5.51931 19.6512 4.36141 18.676 3.38606C17.7007 2.41072 16.5428 1.63704 15.2684 1.10925C13.994 0.581455 12.6281 0.309886 11.2486 0.310059V0.315316Z" fill="#3BB7EA"/>
</svg>
