<svg width="18" height="18" viewBox="0 0 18 18" fill="none" xmlns="http://www.w3.org/2000/svg">
<path fill-rule="evenodd" clip-rule="evenodd" d="M18 9C18 13.9706 13.9706 18 9 18C4.02944 18 0 13.9706 0 9C0 4.02944 4.02944 0 9 0C13.9706 0 18 4.02944 18 9ZM8.976 3.00003C6.97268 3.0035 5.33435 4.59756 5.276 6.60003C5.3006 7.43385 5.54781 8.24592 5.992 8.95202C6.472 9.75202 6.984 10.744 6.984 11.004V11.1028C6.984 11.3789 7.20785 11.6028 7.484 11.6028H10.476C10.7521 11.6028 10.976 11.3789 10.976 11.1028V11C10.976 10.74 11.504 9.73203 11.984 8.96403C12.4413 8.25808 12.6971 7.44069 12.724 6.60003C12.6613 4.59163 11.0134 2.99689 9.004 3.00003L8.976 3.00003ZM7.67601 13.1C7.37243 13.1 7.1795 13.4249 7.32479 13.6914L7.9789 14.8914C8.04898 15.02 8.1837 15.1 8.33011 15.1H9.67093C9.81741 15.1 9.95218 15.0199 10.0222 14.8913L10.6756 13.6913C10.8208 13.4247 10.6278 13.1 10.3243 13.1H7.67601Z" fill="#0097A9"/>
</svg>
