<svg width="14.58" height="14" viewBox="0 0 14.58 14" fill="none" xmlns="http://www.w3.org/2000/svg">
<path fill-rule="evenodd" clip-rule="evenodd" d="M14.5833 11.6667C14.5833 12.0167 14.35 12.25 14 12.25H11.0833C10.7333 12.25 10.5 12.0167 10.5 11.6667V8.75C10.5 8.4 10.7333 8.16667 11.0833 8.16667C11.4333 8.16667 11.6667 8.4 11.6667 8.75V10.5C12.425 9.50833 12.8333 8.28333 12.8333 7C12.8333 3.79167 10.2083 1.16667 7 1.16667C3.79167 1.16667 1.16667 3.79167 1.16667 7C1.16667 10.2083 3.79167 12.8333 7 12.8333C7.35 12.8333 7.58333 13.0667 7.58333 13.4167C7.58333 13.7667 7.35 14 7 14C3.15 14 0 10.85 0 7C0 3.15 3.15 0 7 0C10.85 0 14 3.15 14 7C14 8.45833 13.5333 9.91667 12.6583 11.0833H14C14.35 11.0833 14.5833 11.3167 14.5833 11.6667Z" fill="white"/>
</svg>
