<svg width="14" height="14" viewBox="0 0 14 14" fill="none" xmlns="http://www.w3.org/2000/svg">
<path fill-rule="evenodd" clip-rule="evenodd" d="M7.81667 7L13.825 0.991667C14.0583 0.758333 14.0583 0.408333 13.825 0.175C13.5917 -0.0583333 13.2417 -0.0583333 13.0083 0.175L7 6.18333L0.991667 0.175C0.758333 -0.0583333 0.408333 -0.0583333 0.175 0.175C-0.0583333 0.408333 -0.0583333 0.758333 0.175 0.991667L6.18333 7L0.175 13.0083C-0.0583333 13.2417 -0.0583333 13.5917 0.175 13.825C0.291667 13.9417 0.466667 14 0.583333 14C0.7 14 0.875 13.9417 0.991667 13.825L7 7.81667L13.0083 13.825C13.125 13.9417 13.3 14 13.4167 14C13.5333 14 13.7083 13.9417 13.825 13.825C14.0583 13.5917 14.0583 13.2417 13.825 13.0083L7.81667 7Z" fill="black"/>
</svg>
