<svg width="16" height="17" viewBox="0 0 16 17" fill="none" xmlns="http://www.w3.org/2000/svg">
<path fill-rule="evenodd" clip-rule="evenodd" d="M15.0001 1.41667H12.0834V0.833333C12.0834 0.483333 11.8501 0.25 11.5001 0.25C11.1501 0.25 10.9167 0.483333 10.9167 0.833333V1.41667H5.08341V0.833333C5.08341 0.483333 4.85008 0.25 4.50008 0.25C4.15008 0.25 3.91675 0.483333 3.91675 0.833333V1.41667H1.00008C0.650081 1.41667 0.416748 1.65 0.416748 2V16C0.416748 16.35 0.650081 16.5833 1.00008 16.5833H15.0001C15.3501 16.5833 15.5834 16.35 15.5834 16V2C15.5834 1.65 15.3501 1.41667 15.0001 1.41667ZM14.4167 15.4167H1.58341V2.58333H3.91675V3.16667C3.91675 3.51667 4.15008 3.75 4.50008 3.75C4.85008 3.75 5.08341 3.51667 5.08341 3.16667V2.58333H10.9167V3.16667C10.9167 3.51667 11.1501 3.75 11.5001 3.75C11.8501 3.75 12.0834 3.51667 12.0834 3.16667V2.58333H14.4167V15.4167ZM3.91675 6.08333C3.91675 6.43333 3.68341 6.66667 3.33341 6.66667C2.98341 6.66667 2.75008 6.43333 2.75008 6.08333C2.75008 5.73333 2.98341 5.5 3.33341 5.5C3.68341 5.5 3.91675 5.73333 3.91675 6.08333ZM6.25008 6.08333C6.25008 6.43333 6.01675 6.66667 5.66675 6.66667C5.31675 6.66667 5.08341 6.43333 5.08341 6.08333C5.08341 5.73333 5.31675 5.5 5.66675 5.5C6.01675 5.5 6.25008 5.73333 6.25008 6.08333ZM8.58342 6.08333C8.58342 6.43333 8.35008 6.66667 8.00008 6.66667C7.65008 6.66667 7.41675 6.43333 7.41675 6.08333C7.41675 5.73333 7.65008 5.5 8.00008 5.5C8.35008 5.5 8.58342 5.73333 8.58342 6.08333ZM3.91675 8.41667C3.91675 8.76667 3.68341 9 3.33341 9C2.98341 9 2.75008 8.76667 2.75008 8.41667C2.75008 8.06667 2.98341 7.83333 3.33341 7.83333C3.68341 7.83333 3.91675 8.06667 3.91675 8.41667ZM6.25008 8.41667C6.25008 8.76667 6.01675 9 5.66675 9C5.31675 9 5.08341 8.76667 5.08341 8.41667C5.08341 8.06667 5.31675 7.83333 5.66675 7.83333C6.01675 7.83333 6.25008 8.06667 6.25008 8.41667ZM8.58342 8.41667C8.58342 8.76667 8.35008 9 8.00008 9C7.65008 9 7.41675 8.76667 7.41675 8.41667C7.41675 8.06667 7.65008 7.83333 8.00008 7.83333C8.35008 7.83333 8.58342 8.06667 8.58342 8.41667ZM10.9167 6.08333C10.9167 6.43333 10.6834 6.66667 10.3334 6.66667C9.98341 6.66667 9.75008 6.43333 9.75008 6.08333C9.75008 5.73333 9.98341 5.5 10.3334 5.5C10.6834 5.5 10.9167 5.73333 10.9167 6.08333ZM10.9167 8.41667C10.9167 8.76667 10.6834 9 10.3334 9C9.98341 9 9.75008 8.76667 9.75008 8.41667C9.75008 8.06667 9.98341 7.83333 10.3334 7.83333C10.6834 7.83333 10.9167 8.06667 10.9167 8.41667ZM12.6667 5.5C13.0167 5.5 13.2501 5.73333 13.2501 6.08333C13.2501 6.43333 13.0167 6.66667 12.6667 6.66667C12.3167 6.66667 12.0834 6.43333 12.0834 6.08333C12.0834 5.73333 12.3167 5.5 12.6667 5.5ZM13.2501 8.41667C13.2501 8.76667 13.0167 9 12.6667 9C12.3167 9 12.0834 8.76667 12.0834 8.41667C12.0834 8.06667 12.3167 7.83333 12.6667 7.83333C13.0167 7.83333 13.2501 8.06667 13.2501 8.41667ZM3.91675 10.75C3.91675 11.1 3.68341 11.3333 3.33341 11.3333C2.98341 11.3333 2.75008 11.1 2.75008 10.75C2.75008 10.4 2.98341 10.1667 3.33341 10.1667C3.68341 10.1667 3.91675 10.4 3.91675 10.75ZM6.25008 10.75C6.25008 11.1 6.01675 11.3333 5.66675 11.3333C5.31675 11.3333 5.08341 11.1 5.08341 10.75C5.08341 10.4 5.31675 10.1667 5.66675 10.1667C6.01675 10.1667 6.25008 10.4 6.25008 10.75ZM8.58342 10.75C8.58342 11.1 8.35008 11.3333 8.00008 11.3333C7.65008 11.3333 7.41675 11.1 7.41675 10.75C7.41675 10.4 7.65008 10.1667 8.00008 10.1667C8.35008 10.1667 8.58342 10.4 8.58342 10.75ZM10.9167 10.75C10.9167 11.1 10.6834 11.3333 10.3334 11.3333C9.98341 11.3333 9.75008 11.1 9.75008 10.75C9.75008 10.4 9.98341 10.1667 10.3334 10.1667C10.6834 10.1667 10.9167 10.4 10.9167 10.75ZM13.2501 10.75C13.2501 11.1 13.0167 11.3333 12.6667 11.3333C12.3167 11.3333 12.0834 11.1 12.0834 10.75C12.0834 10.4 12.3167 10.1667 12.6667 10.1667C13.0167 10.1667 13.2501 10.4 13.2501 10.75ZM8.58342 13.0833C8.58342 13.4333 8.35008 13.6667 8.00008 13.6667C7.65008 13.6667 7.41675 13.4333 7.41675 13.0833C7.41675 12.7333 7.65008 12.5 8.00008 12.5C8.35008 12.5 8.58342 12.7333 8.58342 13.0833ZM10.9167 13.0833C10.9167 13.4333 10.6834 13.6667 10.3334 13.6667C9.98341 13.6667 9.75008 13.4333 9.75008 13.0833C9.75008 12.7333 9.98341 12.5 10.3334 12.5C10.6834 12.5 10.9167 12.7333 10.9167 13.0833ZM6.25008 13.0833C6.25008 13.4333 6.01675 13.6667 5.66675 13.6667C5.31675 13.6667 5.08341 13.4333 5.08341 13.0833C5.08341 12.7333 5.31675 12.5 5.66675 12.5C6.01675 12.5 6.25008 12.7333 6.25008 13.0833ZM3.91675 13.0833C3.91675 13.4333 3.68341 13.6667 3.33341 13.6667C2.98341 13.6667 2.75008 13.4333 2.75008 13.0833C2.75008 12.7333 2.98341 12.5 3.33341 12.5C3.68341 12.5 3.91675 12.7333 3.91675 13.0833Z" fill="black"/>
</svg>
