<svg width="412" height="319" viewBox="0 0 412 319" fill="none" xmlns="http://www.w3.org/2000/svg">
<path d="M245.24 268.761C246.106 277.06 247.962 283.748 252.046 289.693C256.006 295.39 260.09 300.963 263.555 306.908C267.515 313.968 265.04 318.179 256.996 318.179C224.202 318.303 191.409 318.179 158.615 318.179C155.397 318.179 152.056 317.683 150.695 314.463C149.21 310.995 151.066 308.147 153.17 305.298C160.347 295.266 169.381 286.225 172.104 273.468C172.351 272.229 173.217 270.991 172.351 269.505C170 267.894 167.277 268.761 164.679 268.761C119.881 268.761 74.96 268.142 30.1625 269.009C10.9812 269.381 0.586245 258.234 0.586245 240.027C0.214995 169.927 0.338745 99.9495 0.462495 29.8486C0.462495 11.6422 12.3425 0.990822 31.6475 0.990822C134.731 0.990822 237.815 0.990822 340.899 0.990822C355.006 0.990822 368.99 0.866968 383.098 0.990822C396.957 1.11467 407.724 8.54586 410.694 19.8165C411.312 21.922 411.312 24.1514 411.312 26.3807C411.312 99.0826 411.312 171.784 411.312 244.61C411.312 259.101 401.536 268.761 386.81 268.761C342.384 268.761 297.957 268.761 253.655 268.761C251.056 268.761 248.705 268.761 245.24 268.761ZM206.63 6.31651C147.106 6.31651 87.4587 6.31651 27.935 6.31651C14.1987 6.31651 5.53625 14.9862 5.53625 28.8578C5.53625 99.578 5.90749 170.298 5.28874 241.018C5.16499 254.023 16.1787 264.922 29.0487 264.798C147.354 264.427 265.535 264.55 383.84 264.55C399.061 264.55 407.352 256.252 407.352 240.894C407.352 170.174 407.352 99.4541 407.352 28.7339C407.352 14.9862 398.69 6.19265 384.83 6.19265C325.306 6.31651 266.03 6.31651 206.63 6.31651ZM261.946 312.482C256.501 304.679 251.799 298.115 247.467 291.55C245.859 289.073 243.755 288.826 241.156 288.826C219.252 288.826 197.472 288.826 175.569 288.826C173.836 288.826 171.856 288.206 170.619 289.94C165.174 297.124 159.852 304.431 153.912 312.482C190.419 312.482 225.44 312.482 261.946 312.482ZM242.022 283.005C243.012 278.917 241.032 275.697 240.414 272.229C239.919 269.628 238.434 268.638 235.711 268.638C217.891 268.761 200.071 268.638 182.251 268.638C180.271 268.638 178.662 269.133 177.92 271.115C176.682 274.83 174.702 278.298 174.702 283.005C197.101 283.005 219.252 283.005 242.022 283.005Z" fill="#E9E9E9"/>
<path d="M207.991 27.7431C266.401 27.7431 324.811 27.867 383.345 27.6193C389.285 27.6193 391.265 28.8578 391.265 35.2982C391.018 102.179 391.018 169.06 391.265 235.94C391.265 242.009 389.409 243.248 383.716 243.248C266.401 243.124 149.086 243.124 31.7713 243.248C26.0788 243.248 24.0988 242.009 24.2225 235.94C24.47 168.812 24.47 101.683 24.2225 34.555C24.2225 28.8578 25.955 27.4954 31.4 27.4954C90.305 27.867 149.21 27.7431 207.991 27.7431ZM387.058 91.8991C387.058 84.5917 387.305 77.2844 387.058 70.1009C386.81 61.3073 388.171 52.5138 386.315 43.844C385.573 40.5 387.058 36.7844 385.078 33.1927C266.773 33.1927 148.468 33.1927 29.6675 33.1927C29.0488 38.766 29.0488 44.0917 29.6675 49.4174C29.6675 109.61 29.7913 169.927 29.5438 230.119C29.5438 236.683 31.5238 238.17 37.835 238.17C153.789 237.922 269.866 238.046 385.82 238.046C387.676 236.56 387.058 234.33 387.058 232.472C387.058 185.532 387.058 138.716 387.058 91.8991Z" fill="#E9E9E9"/>
<path d="M385.82 237.922C269.866 237.922 153.789 237.922 37.835 238.046C31.5237 238.046 29.5437 236.56 29.5437 229.995C29.7912 169.803 29.6675 109.486 29.6675 49.2936C148.344 49.1697 267.144 49.1697 385.82 49.0459C385.82 63.289 385.944 77.5321 385.944 91.7752C385.82 140.573 385.82 189.248 385.82 237.922ZM364.411 231.234C372.208 233.835 373.692 232.844 373.692 225.041C373.692 217.239 373.569 209.436 373.692 201.633C373.816 198.041 372.826 196.307 368.866 196.431C353.274 196.555 337.681 196.555 321.965 196.431C318.376 196.431 317.262 197.794 317.386 201.261C317.51 209.312 317.386 217.362 317.386 225.289C317.386 232.844 319.243 233.959 326.791 231.234C339.414 231.234 351.912 231.234 364.411 231.234ZM177.92 176.367C219.005 176.367 259.966 176.243 301.051 176.491C306.496 176.491 308.352 175.128 308.229 169.431C307.981 141.564 307.981 113.697 308.229 85.8303C308.229 80.5046 307.115 78.5229 301.299 78.5229C219.252 78.6468 137.206 78.6468 55.16 78.5229C49.9625 78.5229 48.23 79.8853 48.3537 85.211C48.6012 113.078 48.725 140.945 48.3537 168.812C48.23 175.252 50.4575 176.491 56.3975 176.491C96.8637 176.243 137.454 176.367 177.92 176.367ZM177.549 235.197C218.139 235.197 258.729 235.197 299.319 235.197C308.105 235.197 308.105 235.197 308.229 226.651C308.229 219.096 307.857 211.417 308.352 203.862C308.847 197.546 306.496 196.06 300.432 196.183C252.046 196.431 203.66 196.307 155.274 196.307C122.232 196.307 89.315 196.431 56.2737 196.183C50.4575 196.183 47.735 197.298 48.23 203.862C48.8487 211.789 48.725 219.963 48.23 227.89C47.8587 233.959 49.9625 235.321 55.7787 235.321C96.3687 235.197 136.959 235.197 177.549 235.197ZM317.51 132.894C317.51 148.252 317.634 163.61 317.386 178.968C317.386 182.931 318.5 184.541 322.707 184.417C337.805 184.17 353.026 184.17 368.124 184.417C372.702 184.541 373.692 182.807 373.692 178.596C373.569 148.128 373.569 117.537 373.692 87.0688C373.692 82.7339 372.455 81.2477 368 81.2477C353.026 81.4954 338.176 81.4954 323.202 81.2477C318.376 81.1238 317.139 82.9816 317.262 87.4404C317.634 102.55 317.51 117.784 317.51 132.894Z" fill="#F5F7F8"/>
<path d="M385.82 237.922C385.82 189.248 385.944 140.573 385.944 91.8991H386.563H387.181C387.181 138.716 387.181 185.532 387.181 232.225C387.058 234.206 387.676 236.436 385.82 237.922Z" fill="#D4E2E2"/>
<path d="M364.411 231.234C351.913 231.234 339.414 231.234 326.915 231.234C326.915 224.174 327.039 216.991 326.791 209.931C326.668 206.092 327.657 204.234 331.989 204.358C341.023 204.606 350.18 204.606 359.214 204.358C363.545 204.234 364.535 206.092 364.411 209.931C364.288 217.115 364.411 224.174 364.411 231.234Z" fill="#ECEFF1"/>
<path d="M364.411 231.234C364.411 224.174 364.287 216.991 364.411 209.931C364.535 206.092 363.545 204.234 359.214 204.358C350.18 204.606 341.023 204.606 331.989 204.358C327.658 204.234 326.668 206.092 326.791 209.931C327.039 216.991 326.791 224.174 326.915 231.234C319.366 233.959 317.634 232.844 317.51 225.289C317.51 217.239 317.634 209.188 317.51 201.261C317.51 197.917 318.624 196.431 322.089 196.431C337.681 196.555 353.274 196.555 368.99 196.431C372.95 196.431 373.94 198.165 373.816 201.633C373.693 209.436 373.816 217.239 373.816 225.041C373.693 232.844 372.084 233.835 364.411 231.234Z" fill="#FEFEFE"/>
<path d="M302.536 177.358H54.7887C49.3437 177.358 45.0125 173.023 45.0125 167.573V88.0596C45.0125 82.6101 49.3437 78.2752 54.7887 78.2752H302.536C307.981 78.2752 312.312 82.6101 312.312 88.0596V167.573C312.312 173.023 307.981 177.358 302.536 177.358Z" fill="white"/>
<path d="M288.553 110.477H93.5225C91.4187 110.477 89.5625 108.743 89.5625 106.514V101.931C89.5625 99.8257 91.295 97.9679 93.5225 97.9679H288.676C290.78 97.9679 292.636 99.7018 292.636 101.931V106.514C292.512 108.743 290.78 110.477 288.553 110.477Z" fill="#E9E9E9"/>
<path d="M79.0437 110.477H69.1437C67.4112 110.477 66.05 109.115 66.05 107.381V101.188C66.05 99.4541 67.4112 98.0917 69.1437 98.0917H79.0437C80.7762 98.0917 82.1375 99.4541 82.1375 101.188V107.381C82.1375 109.115 80.7762 110.477 79.0437 110.477Z" fill="#E9E9E9"/>
<path d="M288.553 134.009H93.5225C91.4187 134.009 89.5625 132.275 89.5625 130.046V125.463C89.5625 123.358 91.295 121.5 93.5225 121.5H288.676C290.78 121.5 292.636 123.234 292.636 125.463V130.046C292.512 132.275 290.78 134.009 288.553 134.009Z" fill="#E9E9E9"/>
<path d="M79.0437 134.009H69.1437C67.4112 134.009 66.05 132.647 66.05 130.913V124.72C66.05 122.986 67.4112 121.624 69.1437 121.624H79.0437C80.7762 121.624 82.1375 122.986 82.1375 124.72V130.913C82.1375 132.647 80.7762 134.009 79.0437 134.009Z" fill="#E9E9E9"/>
<path d="M288.553 157.541H93.5225C91.4187 157.541 89.5625 155.807 89.5625 153.578V148.995C89.5625 146.89 91.295 145.032 93.5225 145.032H288.676C290.78 145.032 292.636 146.766 292.636 148.995V153.578C292.512 155.807 290.78 157.541 288.553 157.541Z" fill="#E9E9E9"/>
<path d="M79.0437 157.541H69.1437C67.4112 157.541 66.05 156.179 66.05 154.445V148.252C66.05 146.518 67.4112 145.156 69.1437 145.156H79.0437C80.7762 145.156 82.1375 146.518 82.1375 148.252V154.445C82.1375 156.179 80.7762 157.541 79.0437 157.541Z" fill="#E9E9E9"/>
<path d="M302.536 238.046H54.7887C49.3437 238.046 45.0125 233.711 45.0125 228.261V198.289C45.0125 192.839 49.3437 188.505 54.7887 188.505H302.536C307.981 188.505 312.312 192.839 312.312 198.289V228.261C312.312 233.711 307.981 238.046 302.536 238.046Z" fill="white"/>
<path d="M288.553 220.706H93.5225C91.4187 220.706 89.5625 218.972 89.5625 216.743V212.161C89.5625 210.055 91.295 208.197 93.5225 208.197H288.676C290.78 208.197 292.636 209.931 292.636 212.161V216.743C292.513 218.972 290.78 220.706 288.553 220.706Z" fill="#E9E9E9"/>
<path d="M79.0437 220.706H69.1437C67.4112 220.706 66.05 219.344 66.05 217.61V211.417C66.05 209.683 67.4112 208.321 69.1437 208.321H79.0437C80.7762 208.321 82.1375 209.683 82.1375 211.417V217.61C82.1375 219.344 80.7762 220.706 79.0437 220.706Z" fill="#E9E9E9"/>
<path d="M385.325 238.046H385.944C386.934 238.046 387.8 237.179 387.8 236.188V36.1651C387.8 34.8027 386.686 33.6881 385.325 33.6881V238.046Z" fill="#DFEEE8"/>
<path d="M386.562 49.789H28.925V35.9174C28.925 33.9358 30.5337 32.4495 32.39 32.4495H383.469C385.078 32.4495 386.439 33.8119 386.439 35.422V49.789H386.562Z" fill="#86BC25"/>
<path d="M370.351 189.743H324.935C320.728 189.743 317.386 186.275 317.386 182.188V85.211C317.386 81.9908 319.985 79.5138 323.079 79.5138H370.351C374.559 79.5138 377.9 82.9817 377.9 87.0688V182.064C377.9 186.275 374.435 189.743 370.351 189.743Z" fill="#FEFEFE"/>
<path d="M367.505 172.404H328.895C326.544 172.404 324.688 170.546 324.688 168.193V165.468C324.688 163.115 326.544 161.257 328.895 161.257H367.505C369.856 161.257 371.712 163.115 371.712 165.468V168.193C371.712 170.546 369.856 172.404 367.505 172.404Z" fill="#86BC25"/>
<path d="M347.952 92.5183C333.721 92.5183 322.212 104.037 322.212 118.28C322.212 132.523 333.721 144.041 347.952 144.041C362.184 144.041 373.693 132.523 373.693 118.28C373.693 104.037 362.06 92.5183 347.952 92.5183ZM347.952 141.316C334.959 141.316 324.316 130.913 324.316 118.156C324.316 105.399 334.835 94.9954 347.952 94.9954C361.07 94.9954 371.589 105.399 371.589 118.156C371.589 130.913 360.946 141.316 347.952 141.316Z" fill="#5CAC40"/>
<path d="M346.839 95.1193V92.5183C346.839 92.5183 363.05 90.6605 371.712 106.761L368.619 107.009C368.619 107.009 363.05 95.6147 346.839 95.1193Z" fill="#E9E9E9"/>
<path d="M366.763 103.046C366.144 104.037 373.074 112.211 371.218 121.624H373.321C373.321 121.624 376.663 106.761 364.288 98.0917L366.763 103.046Z" fill="#E9E9E9"/>
</svg>
