<svg width="18" height="18" viewBox="0 0 18 18" fill="none" xmlns="http://www.w3.org/2000/svg">
<path fill-rule="evenodd" clip-rule="evenodd" d="M18 9C18 13.9706 13.9706 18 9 18C4.02944 18 0 13.9706 0 9C0 4.02944 4.02944 0 9 0C13.9706 0 18 4.02944 18 9ZM11.4743 12.666C11.4743 12.466 11.3413 12.3327 11.141 12.3327H10.141V7.99933C10.141 7.79933 10.008 7.666 9.80767 7.666H7.47433C7.27433 7.666 7.141 7.79933 7.141 7.99933V9.33267C7.141 9.533 7.27433 9.666 7.47433 9.666H8.141V12.3327H7.141C6.941 12.3327 6.80767 12.466 6.80767 12.666V13.9993C6.80767 14.1997 6.941 14.3327 7.141 14.3327H11.141C11.3413 14.3327 11.4743 14.1997 11.4743 13.9993V12.666ZM9.141 6C8.4535 6 7.891 5.4375 7.891 4.75C7.891 4.0625 8.4535 3.5 9.141 3.5C9.8285 3.5 10.391 4.0625 10.391 4.75C10.391 5.4375 9.8285 6 9.141 6Z" fill="#00A3E0"/>
</svg>
