<svg width="16" height="16" viewBox="0 0 16 16" fill="none" xmlns="http://www.w3.org/2000/svg">
<path fill-rule="evenodd" clip-rule="evenodd" d="M7.99993 0.285714C12.2604 0.285714 15.7142 3.73952 15.7142 8C15.7142 12.2605 12.2604 15.7143 7.99993 15.7143C3.73945 15.7143 0.285645 12.2605 0.285645 8C0.285645 3.73952 3.73945 0.285714 7.99993 0.285714ZM7.99993 2.85714V2.86073C7.52654 2.86073 7.14279 3.24369 7.14279 3.71608C7.14279 4.18848 7.52654 4.57143 7.99993 4.57143L8.17105 4.57562C9.9851 4.66479 11.4285 6.16383 11.4285 8C11.4285 9.89355 9.89348 11.4286 7.99993 11.4286C7.29939 11.4286 6.64793 11.2185 6.10511 10.8578L5.94558 10.7452L5.94279 10.7471L5.89377 10.716C5.52082 10.5102 5.04477 10.6092 4.78846 10.9619C4.52555 11.3238 4.58812 11.823 4.92063 12.1113C5.77596 12.7611 6.84336 13.1429 7.99993 13.1429C10.8403 13.1429 13.1428 10.8403 13.1428 8C13.1428 5.22423 10.9437 2.96208 8.19273 2.86069L7.99993 2.85714ZM3.66081 8.50861C3.21153 8.65459 2.96591 9.1379 3.1122 9.58812C3.25848 10.0383 3.74128 10.285 4.19055 10.139C4.63983 9.99302 4.88545 9.5097 4.73917 9.05949C4.59288 8.60927 4.11008 8.36263 3.66081 8.50861ZM3.1122 6.41188C2.96591 6.8621 3.21153 7.34541 3.66081 7.49139C4.11008 7.63737 4.59288 7.39073 4.73917 6.94051C4.88545 6.4903 4.63983 6.00698 4.19055 5.861C3.74128 5.71503 3.25848 5.96166 3.1122 6.41188ZM4.97915 3.84225C4.59617 4.1205 4.5108 4.65588 4.78846 5.03805C5.06613 5.42023 5.60169 5.50448 5.98467 5.22623C6.36764 4.94798 6.45301 4.4126 6.17535 4.03042C5.89768 3.64824 5.36212 3.564 4.97915 3.84225Z" fill="#00A3E0"/>
</svg>
