<svg width="28" height="28" viewBox="0 0 28 28" fill="none" xmlns="http://www.w3.org/2000/svg">
<path fill-rule="evenodd" clip-rule="evenodd" d="M14 1.16663C21.0583 1.16663 26.8333 6.94163 26.8333 14C26.8333 21.0583 21.0583 26.8333 14 26.8333C6.94166 26.8333 1.16666 21.0583 1.16666 14C1.16666 6.94163 6.94166 1.16663 14 1.16663Z" fill="#2375A4"/>
<path fill-rule="evenodd" clip-rule="evenodd" d="M14 0C6.24167 0 0 6.24167 0 14C0 21.7583 6.24167 28 14 28C21.7583 28 28 21.7583 28 14C28 6.24167 21.7583 0 14 0Z" fill="#2375A4"/>
<path fill-rule="evenodd" clip-rule="evenodd" d="M14 1.16663C21.0583 1.16663 26.8333 6.94163 26.8333 14C26.8333 21.0583 21.0583 26.8333 14 26.8333C6.94166 26.8333 1.16666 21.0583 1.16666 14C1.16666 6.94163 6.94166 1.16663 14 1.16663Z" fill="#2375A4"/>
<path fill-rule="evenodd" clip-rule="evenodd" d="M14 0C6.24167 0 0 6.24167 0 14C0 21.7583 6.24167 28 14 28C21.7583 28 28 21.7583 28 14C28 6.24167 21.7583 0 14 0Z" fill="#2375A4"/>
<path fill-rule="evenodd" clip-rule="evenodd" d="M19.6896 9.80833L18.0562 8.175C17.8229 7.94167 17.4729 7.94167 17.2396 8.175L13.9146 11.5L8.95622 16.4583C8.89788 16.5167 8.83955 16.575 8.83955 16.6917L8.02288 19.1417C7.96455 19.375 8.02288 19.6083 8.13955 19.725C8.25622 19.8417 8.37288 19.9 8.54788 19.9C8.60622 19.9 8.66455 19.9 8.72288 19.8417L11.1729 19.025C11.2312 19.025 11.3479 18.9667 11.4062 18.9083L16.3646 13.95L19.6896 10.625C19.8062 10.5083 19.8646 10.3917 19.8646 10.2167C19.8646 10.0417 19.8062 9.925 19.6896 9.80833ZM10.7062 17.975L9.48122 18.3833L9.88955 17.1583L14.3229 12.725L15.1396 13.5417L10.7062 17.975ZM15.9562 12.725L15.1396 11.9083L17.5896 9.45833L18.4062 10.275L15.9562 12.725Z" fill="white"/>
</svg>
