<svg width="14" height="12" viewBox="0 0 14 12" fill="none" xmlns="http://www.w3.org/2000/svg">
<path fill-rule="evenodd" clip-rule="evenodd" d="M13.4458 5.70783C13.5131 5.88276 13.5064 6.10116 13.4361 6.31233L13.3757 6.41005C13.3754 6.41028 13.3748 6.41129 13.3642 6.43258C13.3311 6.49879 13.3074 6.53666 13.259 6.58505L8.59233 11.2517C8.26136 11.5827 7.75307 11.5827 7.42211 11.2517C7.09114 10.9208 7.09114 10.4125 7.42211 10.0815L10.6703 6.83327L1.34055 6.83327C0.852481 6.83327 0.507218 6.48801 0.507218 5.99994C0.507218 5.51187 0.852481 5.16661 1.34055 5.16661L10.6703 5.16661L7.42211 1.91838C7.09114 1.58742 7.09114 1.07913 7.42211 0.748162C7.57673 0.593536 7.81073 0.499939 8.00722 0.499939C8.20371 0.499939 8.4377 0.593536 8.59233 0.748162L13.259 5.41483C13.382 5.53784 13.4335 5.60057 13.4458 5.70783Z" fill="white"/>
<path fill-rule="evenodd" clip-rule="evenodd" d="M13.4458 5.70783C13.5131 5.88276 13.5064 6.10116 13.4361 6.31233L13.3757 6.41005C13.3754 6.41028 13.3748 6.41129 13.3642 6.43258C13.3311 6.49879 13.3074 6.53666 13.259 6.58505L8.59233 11.2517C8.26136 11.5827 7.75307 11.5827 7.42211 11.2517C7.09114 10.9208 7.09114 10.4125 7.42211 10.0815L10.6703 6.83327L1.34055 6.83327C0.852481 6.83327 0.507218 6.48801 0.507218 5.99994C0.507218 5.51187 0.852481 5.16661 1.34055 5.16661L10.6703 5.16661L7.42211 1.91838C7.09114 1.58742 7.09114 1.07913 7.42211 0.748162C7.57673 0.593536 7.81073 0.499939 8.00722 0.499939C8.20371 0.499939 8.4377 0.593536 8.59233 0.748162L13.259 5.41483C13.382 5.53784 13.4335 5.60057 13.4458 5.70783Z" fill="black" fill-opacity="0.24"/>
</svg>
