<svg width="22" height="22" viewBox="0 0 22 22" fill="none" xmlns="http://www.w3.org/2000/svg">
<path d="M11.0562 1.80975C9.28308 1.80975 7.54979 2.35215 6.0755 3.36834C4.60122 4.38454 3.45215 5.82889 2.77361 7.51876C2.09507 9.20863 1.91753 11.0681 2.26345 12.8621C2.60937 14.656 3.4632 16.3039 4.71698 17.5973C5.97076 18.8906 7.56817 19.7714 9.30721 20.1283C11.0462 20.4851 12.8488 20.302 14.4869 19.602C16.1251 18.902 17.5252 17.7167 18.5103 16.1958C19.4954 14.675 20.0212 12.887 20.0212 11.0579C20.0212 8.60511 19.0767 6.25282 17.3954 4.51846C15.7141 2.7841 13.4339 1.80975 11.0562 1.80975ZM11.0562 2.58091C12.6814 2.58091 14.2702 3.07808 15.6216 4.00953C16.9729 4.94099 18.0262 6.26491 18.6481 7.81387C19.2701 9.36283 19.4328 11.0673 19.1157 12.7116C18.7987 14.356 18.016 15.8664 16.8668 17.052C15.7176 18.2375 14.2534 19.0448 12.6593 19.3719C11.0653 19.699 9.41305 19.5311 7.91151 18.8895C6.40997 18.2479 5.12658 17.1614 4.22363 15.7674C3.32069 14.3734 2.83874 12.7344 2.83874 11.0579C2.84112 8.81039 3.70765 6.65567 5.2482 5.06646C6.78876 3.47726 8.87752 2.58336 11.0562 2.58091Z" fill="black"/>
<path d="M11.0564 15.2963C10.9825 15.2963 10.9102 15.3189 10.8487 15.3613C10.7873 15.4037 10.7394 15.4639 10.7111 15.5344C10.6828 15.6048 10.6754 15.6823 10.6898 15.7571C10.7042 15.8319 10.7398 15.9006 10.7921 15.9546C10.8444 16.0085 10.911 16.0452 10.9835 16.0601C11.056 16.075 11.1311 16.0673 11.1994 16.0381C11.2677 16.009 11.3261 15.9595 11.3672 15.8961C11.4083 15.8327 11.4302 15.7582 11.4302 15.6819C11.4299 15.5797 11.3904 15.4818 11.3204 15.4096C11.2503 15.3374 11.1554 15.2966 11.0564 15.2963ZM11.0564 16.8375C10.8344 16.8375 10.6174 16.7696 10.4328 16.6424C10.2482 16.5151 10.1044 16.3343 10.0194 16.1227C9.93445 15.9111 9.91222 15.6783 9.95553 15.4537C9.99884 15.2291 10.1057 15.0228 10.2627 14.8608C10.4197 14.6989 10.6197 14.5886 10.8374 14.5439C11.0552 14.4993 11.2809 14.5222 11.486 14.6098C11.6911 14.6975 11.8664 14.8459 11.9897 15.0363C12.113 15.2267 12.1789 15.4506 12.1789 15.6796C12.1789 15.9867 12.0606 16.2812 11.8501 16.4984C11.6396 16.7155 11.3541 16.8375 11.0564 16.8375Z" fill="black"/>
<path d="M10.6826 12.984H11.4301V11.7265C11.4302 11.6413 11.4577 11.5584 11.5082 11.4909C11.5588 11.4235 11.6296 11.3752 11.7096 11.3537C12.1527 11.235 12.5579 10.9983 12.8844 10.6673C13.2109 10.3363 13.4475 9.92261 13.5702 9.46764C13.693 9.01268 13.6978 8.53242 13.5841 8.07496C13.4703 7.61749 13.2421 7.19888 12.9222 6.86105C12.6023 6.52321 12.2019 6.27801 11.7613 6.14998C11.3206 6.02196 10.8551 6.01562 10.4113 6.13159C9.96748 6.24756 9.56101 6.48178 9.23256 6.81078C8.90412 7.13978 8.66524 7.55203 8.53983 8.00623L9.3087 8.06413C9.46301 7.64197 9.75603 7.28905 10.1367 7.0669C10.5174 6.84475 10.9615 6.76745 11.3918 6.84847C11.822 6.9295 12.2111 7.1637 12.4911 7.51027C12.7711 7.85685 12.9244 8.2938 12.9241 8.74497C12.9177 9.25392 12.7189 9.74017 12.37 10.1001C12.0211 10.46 11.5497 10.6651 11.0564 10.6717H10.6803V12.9875L10.6826 12.984ZM11.805 13.7552H10.3088C10.2099 13.7549 10.1151 13.7141 10.0452 13.6418C9.97538 13.5696 9.93615 13.4717 9.93615 13.3696V10.2873C9.93586 10.2367 9.94528 10.1865 9.96389 10.1396C9.9825 10.0928 10.0099 10.0502 10.0446 10.0144C10.0792 9.97852 10.1204 9.9501 10.1658 9.93076C10.2111 9.91143 10.2597 9.90155 10.3088 9.9017H11.0564C11.3508 9.89105 11.6303 9.76564 11.8386 9.55076C12.0469 9.33587 12.1685 9.04751 12.1788 8.74381C12.1733 8.45872 12.066 8.18575 11.8774 7.97723C11.6889 7.7687 11.4324 7.63927 11.1571 7.61373C10.8818 7.5882 10.607 7.66836 10.3854 7.83886C10.1639 8.00936 10.0111 8.2582 9.95636 8.5377C9.94061 8.62664 9.89517 8.70707 9.82791 8.76503C9.76065 8.82299 9.67583 8.85481 9.58819 8.85497L8.07626 8.73918C7.98138 8.73322 7.89242 8.68964 7.82798 8.61755C7.76354 8.54547 7.72863 8.45047 7.73054 8.35244C7.73054 8.35244 7.73054 8.23665 7.74177 8.17181C7.83726 7.56628 8.08652 6.99764 8.46417 6.52373C8.84183 6.04981 9.33441 5.68752 9.89184 5.47371C10.4493 5.2599 11.0516 5.20219 11.6377 5.30645C12.2237 5.41071 12.7726 5.67323 13.2284 6.0673C13.6842 6.46136 14.0307 6.97293 14.2326 7.54996C14.4346 8.12699 14.4848 8.7489 14.3782 9.35245C14.2716 9.956 14.0119 10.5196 13.6256 10.9861C13.2392 11.4525 12.7401 11.8051 12.1788 12.0079V13.365C12.1788 13.467 12.1396 13.5649 12.0697 13.6372C11.9999 13.7095 11.9051 13.7502 11.8062 13.7505L11.805 13.7552Z" fill="black"/>
</svg>
