<svg width="28" height="28" viewBox="0 0 28 28" fill="none" xmlns="http://www.w3.org/2000/svg">
              <path fill-rule="evenodd" clip-rule="evenodd" d="M20.825 20.0083L15.575 14.7583C16.3917 13.7667 16.9167 12.4833 16.9167 11.0833C16.9167 7.875 14.2917 5.25 11.0833 5.25C7.875 5.25 5.25 7.875 5.25 11.0833C5.25 14.2917 7.875 16.9167 11.0833 16.9167C12.4833 16.9167 13.7667 16.45 14.7583 15.575L20.0083 20.825C20.125 20.9417 20.3 21 20.4167 21C20.5333 21 20.7083 20.9417 20.825 20.825C21.0583 20.5917 21.0583 20.2417 20.825 20.0083ZM11.0833 15.75C8.51667 15.75 6.41667 13.65 6.41667 11.0833C6.41667 8.51667 8.51667 6.41667 11.0833 6.41667C13.65 6.41667 15.75 8.51667 15.75 11.0833C15.75 13.65 13.65 15.75 11.0833 15.75Z" fill="#636669"/>
              <mask id="mask0" mask-type="alpha" maskUnits="userSpaceOnUse" x="5" y="5" width="16" height="16">
              <path fill-rule="evenodd" clip-rule="evenodd" d="M20.825 20.0083L15.575 14.7583C16.3917 13.7667 16.9167 12.4833 16.9167 11.0833C16.9167 7.875 14.2917 5.25 11.0833 5.25C7.875 5.25 5.25 7.875 5.25 11.0833C5.25 14.2917 7.875 16.9167 11.0833 16.9167C12.4833 16.9167 13.7667 16.45 14.7583 15.575L20.0083 20.825C20.125 20.9417 20.3 21 20.4167 21C20.5333 21 20.7083 20.9417 20.825 20.825C21.0583 20.5917 21.0583 20.2417 20.825 20.0083ZM11.0833 15.75C8.51667 15.75 6.41667 13.65 6.41667 11.0833C6.41667 8.51667 8.51667 6.41667 11.0833 6.41667C13.65 6.41667 15.75 8.51667 15.75 11.0833C15.75 13.65 13.65 15.75 11.0833 15.75Z" fill="white"/>
              </mask>
              <g mask="url(#mask0)">
              </g>
              </svg>