<svg width="18" height="18" viewBox="0 0 18 18" fill="none" xmlns="http://www.w3.org/2000/svg">
<path fill-rule="evenodd" clip-rule="evenodd" d="M9 18C13.9706 18 18 13.9706 18 9C18 4.02944 13.9706 0 9 0C4.02944 0 0 4.02944 0 9C0 13.9706 4.02944 18 9 18ZM3.89665 8.98569C3.50613 9.37622 3.50613 10.0094 3.89665 10.3999L7.03228 13.5355L7.1195 13.6132C7.51202 13.9241 8.08386 13.8982 8.44649 13.5355L14.1033 7.87868C14.4939 7.48816 14.4939 6.85499 14.1033 6.46447C13.7128 6.07394 13.0797 6.07394 12.6891 6.46447L7.73907 11.4139L5.31087 8.98569C4.92034 8.59517 4.28718 8.59517 3.89665 8.98569Z" fill="#43B02A"/>
</svg>
