<svg width="40" height="40" viewBox="0 0 40 40" fill="none" xmlns="http://www.w3.org/2000/svg">
<circle cx="20" cy="20" r="20" fill="#EFF0F1"/>
<path d="M24.1748 27H15.7285V25.7432L19.1123 22.3418C20.1436 21.2988 20.8232 20.5547 21.1514 20.1094C21.4795 19.6641 21.7256 19.2305 21.8896 18.8086C22.0537 18.3867 22.1357 17.9326 22.1357 17.4463C22.1357 16.7607 21.9277 16.2188 21.5117 15.8203C21.0957 15.416 20.5186 15.2139 19.7803 15.2139C19.2471 15.2139 18.7402 15.3018 18.2598 15.4775C17.7852 15.6533 17.2549 15.9727 16.6689 16.4355L15.8955 15.4424C17.0791 14.458 18.3682 13.9658 19.7627 13.9658C20.9697 13.9658 21.916 14.2764 22.6016 14.8975C23.2871 15.5127 23.6299 16.3418 23.6299 17.3848C23.6299 18.1992 23.4014 19.0049 22.9443 19.8018C22.4873 20.5986 21.6318 21.6064 20.3779 22.8252L17.5654 25.5762V25.6465H24.1748V27Z" fill="#BBBCBC"/>
</svg>
