<svg width="40" height="40" viewBox="0 0 40 40" fill="none" xmlns="http://www.w3.org/2000/svg">
<circle cx="20" cy="20" r="20" fill="#EFF0F1"/>
<path d="M23.6914 17.1738C23.6914 17.9941 23.46 18.665 22.9971 19.1865C22.54 19.708 21.8896 20.0566 21.0459 20.2324V20.3027C22.0771 20.4316 22.8418 20.7598 23.3398 21.2871C23.8379 21.8145 24.0869 22.5059 24.0869 23.3613C24.0869 24.5859 23.6621 25.5293 22.8125 26.1914C21.9629 26.8477 20.7559 27.1758 19.1914 27.1758C18.5117 27.1758 17.8877 27.123 17.3193 27.0176C16.7568 26.918 16.209 26.7393 15.6758 26.4814V25.0928C16.2324 25.3682 16.8242 25.5791 17.4512 25.7256C18.084 25.8662 18.6816 25.9365 19.2441 25.9365C21.4648 25.9365 22.5752 25.0664 22.5752 23.3262C22.5752 21.7676 21.3506 20.9883 18.9014 20.9883H17.6357V19.7314H18.9189C19.9209 19.7314 20.7148 19.5117 21.3008 19.0723C21.8867 18.627 22.1797 18.0117 22.1797 17.2266C22.1797 16.5996 21.9629 16.1074 21.5293 15.75C21.1016 15.3926 20.5186 15.2139 19.7803 15.2139C19.2178 15.2139 18.6875 15.29 18.1895 15.4424C17.6914 15.5947 17.123 15.876 16.4844 16.2861L15.7461 15.3018C16.2734 14.8857 16.8799 14.5605 17.5654 14.3262C18.2568 14.0859 18.9834 13.9658 19.7451 13.9658C20.9932 13.9658 21.9629 14.2529 22.6543 14.8271C23.3457 15.3955 23.6914 16.1777 23.6914 17.1738Z" fill="#BBBCBC"/>
</svg>
