<svg width="14" height="15" viewBox="0 0 14 15" fill="none" xmlns="http://www.w3.org/2000/svg">
<path d="M3.30009 14.792C3.30009 14.636 3.27009 14.558 3.21009 14.558L2.79609 14.756C2.79609 14.672 2.74809 14.612 2.65209 14.576L2.50809 14.558C2.41209 14.558 2.29209 14.6 2.14809 14.684C2.12409 14.624 2.09409 14.564 2.05809 14.504C2.02209 14.444 1.99209 14.39 1.96809 14.342C1.81209 14.042 1.65609 13.712 1.50009 13.352C1.35609 12.98 1.21809 12.626 1.08609 12.29C0.966086 11.954 0.870086 11.69 0.798086 11.498C0.750086 11.342 0.696086 11.108 0.636086 10.796C0.576086 10.484 0.516086 10.088 0.456086 9.608C0.588086 9.692 0.690086 9.734 0.762086 9.734C0.846086 9.734 0.924086 9.608 0.996086 9.356C1.03209 9.404 1.09809 9.428 1.19409 9.428C1.26609 9.428 1.32009 9.404 1.35609 9.356L1.64409 8.924L1.96809 9.032H1.98609C2.01009 9.032 2.03409 9.02 2.05809 8.996C2.08209 8.972 2.11809 8.948 2.16609 8.924C2.26209 8.864 2.33409 8.834 2.38209 8.834L2.43609 8.852C2.73609 8.996 2.92809 9.26 3.01209 9.644C3.22809 10.556 3.44409 11.012 3.66009 11.012C3.87609 11.012 4.12809 10.784 4.41609 10.328C4.56009 10.1 4.70409 9.836 4.84809 9.536C5.00409 9.236 5.16009 8.9 5.31609 8.528C5.34009 8.672 5.36409 8.744 5.38809 8.744C5.44809 8.744 5.55009 8.594 5.69409 8.294C5.85009 7.994 6.09609 7.58 6.43209 7.052C6.62409 6.728 6.86409 6.362 7.15209 5.954C7.45209 5.546 7.77009 5.126 8.10609 4.694C8.44209 4.262 8.76609 3.854 9.07809 3.47C9.40209 3.086 9.69009 2.756 9.94209 2.48C10.1941 2.204 10.3801 2.024 10.5001 1.94C10.9561 1.628 11.3161 1.328 11.5801 1.04C11.5681 1.124 11.5501 1.202 11.5261 1.274C11.5141 1.334 11.5081 1.376 11.5081 1.4C11.5081 1.448 11.5321 1.472 11.5801 1.472L12.0841 1.22V1.292C12.0841 1.388 12.1081 1.436 12.1561 1.436C12.1921 1.436 12.2641 1.382 12.3721 1.274C12.4801 1.166 12.5401 1.088 12.5521 1.04L12.5161 1.292L13.1281 0.932L12.9841 1.256C13.1761 1.124 13.3141 1.058 13.3981 1.058C13.4461 1.058 13.4821 1.088 13.5061 1.148C13.5301 1.196 13.5421 1.244 13.5421 1.292C13.5421 1.364 13.5121 1.448 13.4521 1.544C13.3921 1.64 13.3141 1.754 13.2181 1.886C13.1461 1.982 13.0261 2.126 12.8581 2.318C12.7021 2.498 12.4621 2.768 12.1381 3.128C11.8141 3.476 11.3821 3.962 10.8421 4.586C10.6981 4.742 10.4761 5.018 10.1761 5.414C9.87609 5.798 9.53409 6.248 9.15009 6.764C8.77809 7.268 8.40609 7.778 8.03409 8.294C7.66209 8.81 7.33209 9.278 7.04409 9.698C6.75609 10.106 6.55209 10.412 6.43209 10.616L5.31609 12.506C5.07609 12.914 4.87809 13.25 4.72209 13.514C4.56609 13.766 4.44609 13.94 4.36209 14.036C4.18209 14.252 3.98409 14.444 3.76809 14.612L3.60609 14.522L3.46209 14.612L3.30009 14.792Z" fill="white"/>
</svg>
