<svg width="15" height="16" viewBox="0 0 15 16" fill="none" xmlns="http://www.w3.org/2000/svg">
<path fill-rule="evenodd" clip-rule="evenodd" d="M0.363308 2.32003C4.96705e-08 3.03308 0 3.96649 0 5.83333V10.1667C0 12.0335 4.96705e-08 12.9669 0.363308 13.68C0.682892 14.3072 1.19282 14.8171 1.82003 15.1367C2.53308 15.5 3.46649 15.5 5.33333 15.5H9.66667C11.5335 15.5 12.4669 15.5 13.18 15.1367C13.8072 14.8171 14.3171 14.3072 14.6367 13.68C15 12.9669 15 12.0335 15 10.1667V5.83333C15 3.96649 15 3.03308 14.6367 2.32003C14.3171 1.69282 13.8072 1.18289 13.18 0.863308C12.4669 0.5 11.5335 0.5 9.66667 0.5H5.33333C3.46649 0.5 2.53308 0.5 1.82003 0.863308C1.19282 1.18289 0.682892 1.69282 0.363308 2.32003ZM10.5892 6.92258C10.9147 6.59717 10.9147 6.06952 10.5892 5.74407C10.2638 5.41864 9.73617 5.41864 9.41075 5.74407L6.66667 8.48817L5.58926 7.41075C5.26382 7.08533 4.73618 7.08533 4.41074 7.41075C4.08531 7.73617 4.08531 8.26383 4.41074 8.58925L6.07742 10.2559C6.40283 10.5813 6.9305 10.5813 7.25592 10.2559L10.5892 6.92258Z" fill="#75BE00"/>
</svg>
