<svg width="32" height="32" viewBox="0 0 32 32" fill="none" xmlns="http://www.w3.org/2000/svg">
<path fill-rule="evenodd" clip-rule="evenodd" d="M23.8 22.8667L17.8 16.8667C18.7333 15.7333 19.3333 14.2667 19.3333 12.6667C19.3333 9 16.3333 6 12.6667 6C9 6 6 9 6 12.6667C6 16.3333 9 19.3333 12.6667 19.3333C14.2667 19.3333 15.7333 18.8 16.8667 17.8L22.8667 23.8C23 23.9333 23.2 24 23.3333 24C23.4667 24 23.6667 23.9333 23.8 23.8C24.0667 23.5333 24.0667 23.1333 23.8 22.8667ZM12.6667 18C9.73333 18 7.33333 15.6 7.33333 12.6667C7.33333 9.73333 9.73333 7.33333 12.6667 7.33333C15.6 7.33333 18 9.73333 18 12.6667C18 15.6 15.6 18 12.6667 18Z" fill="#75787B"/>
<mask id="mask0_1254:732" style="mask-type:alpha" maskUnits="userSpaceOnUse" x="6" y="6" width="18" height="18">
<path fill-rule="evenodd" clip-rule="evenodd" d="M23.8 22.8667L17.8 16.8667C18.7333 15.7333 19.3333 14.2667 19.3333 12.6667C19.3333 9 16.3333 6 12.6667 6C9 6 6 9 6 12.6667C6 16.3333 9 19.3333 12.6667 19.3333C14.2667 19.3333 15.7333 18.8 16.8667 17.8L22.8667 23.8C23 23.9333 23.2 24 23.3333 24C23.4667 24 23.6667 23.9333 23.8 23.8C24.0667 23.5333 24.0667 23.1333 23.8 22.8667ZM12.6667 18C9.73333 18 7.33333 15.6 7.33333 12.6667C7.33333 9.73333 9.73333 7.33333 12.6667 7.33333C15.6 7.33333 18 9.73333 18 12.6667C18 15.6 15.6 18 12.6667 18Z" fill="white"/>
</mask>
<g mask="url(#mask0_1254:732)">
</g>
</svg>
