<svg width="24" height="24" viewBox="0 0 24 24" fill="none" xmlns="http://www.w3.org/2000/svg">
<path fill-rule="evenodd" clip-rule="evenodd" d="M0.581293 2.91205C7.94729e-08 4.05292 0 5.54639 0 8.53333V15.4667C0 18.4536 7.94729e-08 19.9471 0.581293 21.088C1.09263 22.0915 1.90852 22.9073 2.91205 23.4187C4.05292 24 5.54639 24 8.53333 24H15.4667C18.4536 24 19.9471 24 21.088 23.4187C22.0915 22.9073 22.9073 22.0915 23.4187 21.088C24 19.9471 24 18.4536 24 15.4667V8.53333C24 5.54639 24 4.05292 23.4187 2.91205C22.9073 1.90852 22.0915 1.09263 21.088 0.581293C19.9471 7.94729e-08 18.4536 0 15.4667 0H8.53333C5.54639 0 4.05292 7.94729e-08 2.91205 0.581293C1.90852 1.09263 1.09263 1.90852 0.581293 2.91205ZM16.9428 10.2761C17.4635 9.75547 17.4635 8.91123 16.9428 8.39052C16.4221 7.86983 15.5779 7.86983 15.0572 8.39052L10.6667 12.7811L8.94281 11.0572C8.42211 10.5365 7.57789 10.5365 7.05719 11.0572C6.53649 11.5779 6.53649 12.4221 7.05719 12.9428L9.72387 15.6095C10.2445 16.1301 11.0888 16.1301 11.6095 15.6095L16.9428 10.2761Z" fill="#75BE00"/>
</svg>
