<svg width="94" height="80" viewBox="0 0 94 80" fill="none" xmlns="http://www.w3.org/2000/svg">
<path fill-rule="evenodd" clip-rule="evenodd" d="M43.1317 68.5714H19.5737C14.3824 68.5714 9.40377 66.5406 5.73299 62.9256C2.06222 59.3106 0 54.4076 0 49.2952C0 44.1829 2.06222 39.2799 5.73299 35.6649C9.40377 32.0499 14.3824 30.019 19.5737 30.019H21.6626V25.7143C21.5695 18.9982 24.1844 12.5198 28.9341 7.69947C33.6838 2.87916 40.1805 0.110311 47 0C53.8195 0.110311 60.3162 2.87916 65.0659 7.69947C69.8156 12.5198 72.4305 18.9982 72.3374 25.7143V30.019H74.4263C79.6176 30.019 84.5962 32.0499 88.267 35.6649C91.9378 39.2799 94 44.1829 94 49.2952C94 54.4076 91.9378 59.3106 88.267 62.9256C84.5962 66.5406 79.6176 68.5714 74.4263 68.5714H50.8683V51.0857L55.8584 56.0381C56.2191 56.3933 56.6473 56.675 57.1185 56.8673C57.5898 57.0595 58.0949 57.1584 58.6049 57.1584C59.115 57.1584 59.6201 57.0595 60.0913 56.8673C60.5626 56.675 60.9908 56.3933 61.3514 56.0381C61.7121 55.6829 61.9982 55.2612 62.1934 54.7971C62.3886 54.3331 62.4891 53.8357 62.4891 53.3333C62.4891 52.831 62.3886 52.3336 62.1934 51.8695C61.9982 51.4054 61.7121 50.9838 61.3514 50.6286L49.7465 39.2C49.3869 38.8429 48.9591 38.5595 48.4877 38.3661C48.0163 38.1727 47.5107 38.0732 47 38.0732C46.4893 38.0732 45.9837 38.1727 45.5123 38.3661C45.0409 38.5595 44.6131 38.8429 44.2535 39.2L32.6486 50.6286C31.9201 51.3459 31.5109 52.3189 31.5109 53.3333C31.5109 54.3478 31.9201 55.3207 32.6486 56.0381C33.377 56.7554 34.3649 57.1584 35.3951 57.1584C36.4252 57.1584 37.4131 56.7554 38.1416 56.0381L43.1317 51.0857V68.5714ZM43.1317 68.5714V76.1905C43.1317 77.2008 43.5392 78.1698 44.2647 78.8842C44.9901 79.5986 45.9741 80 47 80C48.0259 80 49.0099 79.5986 49.7353 78.8842C50.4608 78.1698 50.8683 77.2008 50.8683 76.1905V68.5714H43.1317Z" fill="#D0D0CE"/>
</svg>
