<svg width="18" height="18" viewBox="0 0 18 18" fill="none" xmlns="http://www.w3.org/2000/svg">
<path d="M9 0C13.9675 0 18 4.03254 18 9C18 13.9675 13.9675 18 9 18C4.03254 18 0 13.9675 0 9C0 4.03254 4.03254 0 9 0ZM9 0.754693C4.44931 0.754693 0.754692 4.44931 0.754692 9C0.754692 13.5507 4.44931 17.2453 9 17.2453C13.5507 17.2453 17.2453 13.5507 17.2453 9C17.2453 4.44931 13.5507 0.754693 9 0.754693Z" fill="black"/>
<path d="M3.51442 12.4695C3.94245 12.0978 4.79852 11.9626 5.63207 11.8387C6.02631 11.7824 6.43182 11.7261 6.6233 11.6472C6.96123 11.5233 7.17524 11.3093 7.2203 11.1741C7.23156 11.1403 7.2203 11.1178 7.20904 11.0953C6.74721 10.4532 6.26285 9.32681 6.02631 8.33557C5.6208 6.66849 5.7785 5.38438 6.48814 4.50578C7.42305 3.34558 8.94371 3.37937 9.01129 3.37937C9.14646 3.37937 10.6108 3.37937 11.5232 4.50578C12.2328 5.38438 12.3905 6.67975 11.985 8.33557C11.7485 9.31555 11.2641 10.4532 10.8023 11.0953C10.7798 11.1178 10.7798 11.1403 10.791 11.1741C10.8361 11.3093 11.0501 11.5233 11.388 11.6472C11.5795 11.7148 11.985 11.7824 12.3792 11.8387C13.2128 11.9626 14.0801 12.0865 14.4969 12.4695C14.6546 12.6047 14.6659 12.8412 14.5307 12.9989C14.4518 13.0777 14.3505 13.1228 14.2491 13.1228C14.159 13.1228 14.0689 13.089 14.0013 13.0327C13.7422 12.8074 12.8861 12.6722 12.2666 12.5821C11.7935 12.5145 11.388 12.447 11.1177 12.3456C10.5883 12.1428 10.194 11.7824 10.0814 11.3881C10.0025 11.1291 10.0476 10.87 10.2053 10.656C10.6108 10.0928 11.0614 9.04521 11.2641 8.16661C11.602 6.74734 11.5007 5.67725 10.9487 4.99014C10.2503 4.1228 9.04508 4.13407 9.02255 4.13407H9.01129C9.01129 4.13407 9.01129 4.13407 9.00003 4.13407C9.00003 4.13407 9.00003 4.13407 8.98876 4.13407C8.96623 4.13407 7.76098 4.1228 7.0626 4.99014C6.51066 5.67725 6.40929 6.74734 6.74721 8.16661C6.96123 9.05647 7.41179 10.104 7.80603 10.656C7.96373 10.87 8.00879 11.1291 7.92994 11.3881C7.8173 11.7824 7.42305 12.1428 6.89364 12.3456C6.6233 12.447 6.2178 12.5033 5.74471 12.5821C5.12518 12.6722 4.26911 12.7961 4.01004 13.0327C3.94245 13.1003 3.85234 13.1228 3.76223 13.1228C3.66085 13.1228 3.55947 13.0777 3.48063 12.9989C3.34546 12.8412 3.35672 12.6047 3.51442 12.4695Z" fill="black"/>
</svg>
