<svg width="18" height="18" viewBox="0 0 18 18" fill="none" xmlns="http://www.w3.org/2000/svg">
<path d="M14.5215 12.9991C14.4471 13.0825 14.3446 13.1253 14.2409 13.1253C14.1519 13.1253 14.064 13.0938 13.9919 13.0307C13.7327 12.8019 12.8786 12.6746 12.2554 12.5833C11.781 12.5135 11.372 12.4526 11.106 12.3501C10.5708 12.1439 10.182 11.7855 10.0637 11.39C9.98711 11.1331 10.0299 10.8717 10.1866 10.6553C10.59 10.0953 11.0373 9.0462 11.2514 8.16164C11.5951 6.73958 11.4892 5.66909 10.9359 4.98059C10.2384 4.11068 9.02479 4.1242 9.00789 4.1242C9.00564 4.1242 9.00338 4.1242 9.00113 4.1242C8.99887 4.1242 8.99662 4.12308 8.99437 4.12308C8.98986 4.12308 8.98648 4.12533 8.98197 4.12533C8.9538 4.12871 7.74696 4.11744 7.05396 4.98059C6.50182 5.66909 6.39589 6.73958 6.73845 8.16164C6.95142 9.0462 7.3999 10.0953 7.80331 10.6553C7.95881 10.8717 8.00276 11.132 7.92613 11.39C7.80781 11.7855 7.41906 12.1439 6.88381 12.3501C6.61675 12.4526 6.20771 12.5135 5.73444 12.5833C5.11131 12.6757 4.25717 12.8019 3.998 13.0307C3.92701 13.0938 3.83799 13.1253 3.74897 13.1253C3.6453 13.1253 3.54276 13.0825 3.46839 12.9991C3.33091 12.8447 3.34556 12.607 3.49994 12.4695C3.92588 12.0932 4.78903 11.9647 5.62401 11.8419C6.01841 11.7833 6.42519 11.7236 6.6145 11.6503C6.94917 11.5218 7.16552 11.3145 7.20721 11.1759C7.21848 11.1365 7.21285 11.1196 7.19482 11.0937C6.73394 10.4547 6.24715 9.32115 6.00939 8.33742C5.60824 6.67422 5.76374 5.384 6.47477 4.50394C7.38638 3.37599 8.85689 3.37486 8.98873 3.37486H8.98986C9.05522 3.37486 10.5798 3.34782 11.5151 4.50394C12.2261 5.38287 12.3816 6.67309 11.9805 8.33742C11.7427 9.32115 11.2559 10.4536 10.795 11.0937C10.777 11.1184 10.7714 11.1365 10.7826 11.1759C10.8243 11.3145 11.0407 11.5207 11.3754 11.6503C11.5647 11.7236 11.9715 11.7833 12.3658 11.8419C13.2008 11.9658 14.064 12.0932 14.4899 12.4695C14.6454 12.607 14.6589 12.8436 14.5215 12.9991ZM9 0C4.02955 0 0 4.02955 0 9C0 13.9705 4.02955 18 9 18C13.9705 18 18 13.9705 18 9C18 4.02955 13.9705 0 9 0Z" fill="black"/>
</svg>
