<svg width="18" height="18" viewBox="0 0 18 18" fill="none" xmlns="http://www.w3.org/2000/svg">
<path fill-rule="evenodd" clip-rule="evenodd" d="M18 9C18 13.9706 13.9706 18 9 18C4.02944 18 0 13.9706 0 9C0 4.02944 4.02944 0 9 0C13.9706 0 18 4.02944 18 9ZM9 14.83C8.29167 14.83 7.75 14.2883 7.75 13.58C7.75 12.8717 8.29167 12.33 9 12.33C9.70833 12.33 10.25 12.8717 10.25 13.58C10.25 14.2883 9.70833 14.83 9 14.83ZM9 3.5C8.44771 3.5 8 3.94772 8 4.5V9.83333C8 10.3856 8.44771 10.8333 9 10.8333C9.55229 10.8333 10 10.3856 10 9.83333V4.5C10 3.94772 9.55229 3.5 9 3.5Z" fill="#FFCD00"/>
</svg>
