<svg width="387" height="28" viewBox="0 0 387 28" fill="none" xmlns="http://www.w3.org/2000/svg">
<path d="M98.7163 19.4916C98.7163 18.0178 99.943 16.8246 101.45 16.8246C102.961 16.8246 104.184 18.0214 104.184 19.4916C104.184 20.9653 102.961 22.1586 101.45 22.1586C99.9394 22.1586 98.7163 20.9618 98.7163 19.4916Z" fill="#86BD40"/>
<path d="M16.6775 12.2446C16.6775 15.3235 15.8294 17.6958 14.1332 19.3613C12.4369 21.0268 10.0527 21.8614 6.9769 21.8614H1V3.41272H7.39186C10.3548 3.41272 12.6444 4.16913 14.2569 5.68551C15.8694 7.19833 16.6775 9.38589 16.6775 12.2446ZM11.4978 12.4222C11.4978 10.7318 11.1629 9.47822 10.4931 8.66144C9.82339 7.84465 8.80782 7.43626 7.44282 7.43626H5.99045V17.7703H7.10066C8.6149 17.7703 9.72875 17.33 10.4349 16.4528C11.1447 15.5757 11.4978 14.2298 11.4978 12.4222Z" fill="black"/>
<path d="M37.975 3.33594H33.2212V21.8627H37.975V3.33594Z" fill="black"/>
<path d="M53.5767 14.9539C53.5767 17.2054 52.9724 18.9597 51.7603 20.2169C50.5482 21.4775 48.8519 22.1061 46.6716 22.1061C44.5786 22.1061 42.9187 21.4633 41.6811 20.1742C40.4435 18.8851 39.8247 17.145 39.8247 14.9539C39.8247 12.7096 40.429 10.9659 41.6411 9.72298C42.8532 8.48005 44.5531 7.85858 46.7407 7.85858C48.0948 7.85858 49.2887 8.14623 50.3261 8.72153C51.3635 9.29683 52.1643 10.1207 52.7285 11.1932C53.2964 12.2657 53.5767 13.5192 53.5767 14.9539ZM44.655 14.9539C44.655 16.1365 44.8115 17.035 45.1282 17.6564C45.4449 18.2743 45.9763 18.5868 46.7189 18.5868C47.4578 18.5868 47.9783 18.2779 48.2805 17.6564C48.5826 17.0385 48.7355 16.1365 48.7355 14.9539C48.7355 13.7785 48.5826 12.8942 48.2732 12.2941C47.9638 11.6939 47.4396 11.3956 46.6934 11.3956C45.9654 11.3956 45.4412 11.6939 45.1246 12.2905C44.8115 12.8836 44.655 13.7714 44.655 14.9539Z" fill="black"/>
<path d="M60.2158 8.09921H55.4619V21.8602H60.2158V8.09921Z" fill="black"/>
<path d="M60.2158 3.33594H55.4619V6.43616H60.2158V3.33594Z" fill="black"/>
<path d="M69.851 18.354C70.4917 18.354 71.2561 18.1942 72.1479 17.8781V21.3406C71.5072 21.614 70.8957 21.8129 70.317 21.9301C69.7382 22.0473 69.0575 22.1076 68.2786 22.1076C66.6842 22.1076 65.5303 21.717 64.8242 20.9357C64.1217 20.1545 63.7686 18.9541 63.7686 17.3348V11.6599H62.1051V8.10158H63.7686V4.58942L68.5588 3.77618V8.10158H71.591V11.6599H68.5588V17.0152C68.5625 17.9065 68.992 18.354 69.851 18.354Z" fill="black"/>
<path d="M80.8503 18.354C81.4909 18.354 82.2553 18.1942 83.1471 17.8781V21.3406C82.5065 21.614 81.895 21.8129 81.3162 21.9301C80.7374 22.0473 80.0568 22.1076 79.2778 22.1076C77.6835 22.1076 76.5296 21.717 75.8271 20.9357C75.1209 20.1545 74.7678 18.9541 74.7678 17.3348V11.6599H73.1007V8.10158H74.7678V4.53615L79.5581 3.77618V8.10158H82.5939V11.6599H79.5581V17.0152C79.5654 17.9065 79.9949 18.354 80.8503 18.354Z" fill="black"/>
<path d="M95.8517 9.48149C94.7233 8.40192 93.1181 7.85858 91.0433 7.85858C88.8629 7.85858 87.1849 8.48005 86.0091 9.72298C84.8334 10.9659 84.2474 12.7486 84.2474 15.0711C84.2474 17.3226 84.8807 19.0556 86.1511 20.2772C87.4215 21.4953 89.2014 22.1061 91.4946 22.1061C92.5976 22.1061 93.544 22.0315 94.3375 21.8859C95.1274 21.7403 95.8918 21.4811 96.6343 21.1047L95.9027 18.0044C95.364 18.2175 94.8507 18.3844 94.3666 18.4945C93.6677 18.6543 92.8997 18.7324 92.0625 18.7324C91.1452 18.7324 90.4245 18.5123 89.893 18.0755C89.3616 17.6387 89.0813 17.035 89.0485 16.2643H97.5443V14.1514C97.548 12.1201 96.9838 10.5646 95.8517 9.48149ZM89.1505 13.2778C89.216 12.5249 89.4344 11.9709 89.813 11.6193C90.1915 11.2678 90.6574 11.0902 91.218 11.0902C91.8259 11.0902 92.31 11.2891 92.6704 11.6868C93.0307 12.0845 93.22 12.6137 93.2346 13.2778H89.1505Z" fill="black"/>
<path d="M29.6901 9.48149C28.5617 8.40192 26.9565 7.85858 24.8817 7.85858C22.7013 7.85858 21.0232 8.48005 19.8475 9.72298C18.6718 10.9659 18.0858 12.7486 18.0858 15.0711C18.0858 17.3226 18.7191 19.0556 19.9895 20.2772C21.2562 21.4953 23.0398 22.1061 25.333 22.1061C26.4359 22.1061 27.3823 22.0315 28.1759 21.8859C28.9657 21.7403 29.7301 21.4811 30.4727 21.1047L29.7411 18.0044C29.2023 18.2175 28.6891 18.3844 28.205 18.4945C27.5025 18.6543 26.7381 18.7324 25.9009 18.7324C24.9836 18.7324 24.2629 18.5123 23.7314 18.0755C23.2 17.6387 22.9197 17.035 22.8869 16.2643H31.3827V14.1514C31.3827 12.1201 30.8185 10.5646 29.6901 9.48149ZM22.9852 13.2778C23.0507 12.5249 23.2728 11.9709 23.6477 11.6193C24.0262 11.2678 24.4922 11.0902 25.0527 11.0902C25.6606 11.0902 26.1447 11.2891 26.5051 11.6868C26.8655 12.0845 27.0547 12.6137 27.0693 13.2778H22.9852Z" fill="black"/>
<path d="M141 4V22" stroke="#75BE00" stroke-linecap="round" stroke-linejoin="round"/>
<path d="M177.797 7.72266H182.24C184.265 7.72266 185.733 8.01237 186.645 8.5918C187.562 9.16471 188.021 10.0794 188.021 11.3359C188.021 12.1888 187.82 12.8887 187.416 13.4355C187.019 13.9824 186.488 14.3112 185.824 14.4219V14.5195C186.729 14.7214 187.38 15.099 187.777 15.6523C188.181 16.2057 188.383 16.9414 188.383 17.8594C188.383 19.1615 187.911 20.1771 186.967 20.9062C186.029 21.6354 184.753 22 183.139 22H177.797V7.72266ZM180.824 13.377H182.582C183.402 13.377 183.995 13.25 184.359 12.9961C184.73 12.7422 184.916 12.3223 184.916 11.7363C184.916 11.1895 184.714 10.7988 184.311 10.5645C183.913 10.3236 183.282 10.2031 182.416 10.2031H180.824V13.377ZM180.824 15.7793V19.5H182.797C183.63 19.5 184.245 19.3405 184.643 19.0215C185.04 18.7025 185.238 18.2142 185.238 17.5566C185.238 16.3717 184.392 15.7793 182.699 15.7793H180.824ZM197.934 22L197.357 20.5156H197.279C196.778 21.1471 196.26 21.5866 195.727 21.834C195.199 22.0749 194.509 22.1953 193.656 22.1953C192.608 22.1953 191.781 21.8958 191.176 21.2969C190.577 20.6979 190.277 19.8451 190.277 18.7383C190.277 17.5794 190.681 16.7266 191.488 16.1797C192.302 15.6263 193.526 15.3203 195.16 15.2617L197.055 15.2031V14.7246C197.055 13.6178 196.488 13.0645 195.355 13.0645C194.483 13.0645 193.458 13.3281 192.279 13.8555L191.293 11.8438C192.549 11.1862 193.943 10.8574 195.473 10.8574C196.938 10.8574 198.061 11.1764 198.842 11.8145C199.623 12.4525 200.014 13.4225 200.014 14.7246V22H197.934ZM197.055 16.9414L195.902 16.9805C195.036 17.0065 194.392 17.1628 193.969 17.4492C193.546 17.7357 193.334 18.1719 193.334 18.7578C193.334 19.5977 193.816 20.0176 194.779 20.0176C195.469 20.0176 196.02 19.819 196.43 19.4219C196.846 19.0247 197.055 18.4974 197.055 17.8398V16.9414ZM213.168 22H210.189V15.623C210.189 14.8353 210.049 14.2461 209.77 13.8555C209.49 13.4583 209.044 13.2598 208.432 13.2598C207.598 13.2598 206.996 13.5397 206.625 14.0996C206.254 14.653 206.068 15.5742 206.068 16.8633V22H203.09V11.082H205.365L205.766 12.4785H205.932C206.264 11.9512 206.719 11.554 207.299 11.2871C207.885 11.0137 208.549 10.877 209.291 10.877C210.561 10.877 211.524 11.222 212.182 11.9121C212.839 12.5957 213.168 13.5853 213.168 14.8809V22ZM219.096 16.0625L220.395 14.4023L223.451 11.082H226.811L222.475 15.8184L227.074 22H223.637L220.492 17.5762L219.213 18.6016V22H216.234V6.80469H219.213V13.582L219.057 16.0625H219.096ZM245.912 14.7246C245.912 17.0749 245.242 18.875 243.9 20.125C242.566 21.375 240.635 22 238.109 22H234.066V7.72266H238.549C240.88 7.72266 242.689 8.33789 243.979 9.56836C245.268 10.7988 245.912 12.5176 245.912 14.7246ZM242.768 14.8027C242.768 11.7363 241.413 10.2031 238.705 10.2031H237.094V19.5H238.393C241.309 19.5 242.768 17.9342 242.768 14.8027ZM255.57 22L254.994 20.5156H254.916C254.415 21.1471 253.897 21.5866 253.363 21.834C252.836 22.0749 252.146 22.1953 251.293 22.1953C250.245 22.1953 249.418 21.8958 248.812 21.2969C248.214 20.6979 247.914 19.8451 247.914 18.7383C247.914 17.5794 248.318 16.7266 249.125 16.1797C249.939 15.6263 251.163 15.3203 252.797 15.2617L254.691 15.2031V14.7246C254.691 13.6178 254.125 13.0645 252.992 13.0645C252.12 13.0645 251.094 13.3281 249.916 13.8555L248.93 11.8438C250.186 11.1862 251.579 10.8574 253.109 10.8574C254.574 10.8574 255.697 11.1764 256.479 11.8145C257.26 12.4525 257.65 13.4225 257.65 14.7246V22H255.57ZM254.691 16.9414L253.539 16.9805C252.673 17.0065 252.029 17.1628 251.605 17.4492C251.182 17.7357 250.971 18.1719 250.971 18.7578C250.971 19.5977 251.452 20.0176 252.416 20.0176C253.106 20.0176 253.656 19.819 254.066 19.4219C254.483 19.0247 254.691 18.4974 254.691 17.8398V16.9414ZM265.326 19.8223C265.847 19.8223 266.472 19.7083 267.201 19.4805V21.6973C266.459 22.0293 265.548 22.1953 264.467 22.1953C263.275 22.1953 262.406 21.8958 261.859 21.2969C261.319 20.6914 261.049 19.7865 261.049 18.582V13.3184H259.623V12.0586L261.264 11.0625L262.123 8.75781H264.027V11.082H267.084V13.3184H264.027V18.582C264.027 19.0052 264.145 19.3177 264.379 19.5195C264.62 19.7214 264.936 19.8223 265.326 19.8223ZM276.352 22L275.775 20.5156H275.697C275.196 21.1471 274.678 21.5866 274.145 21.834C273.617 22.0749 272.927 22.1953 272.074 22.1953C271.026 22.1953 270.199 21.8958 269.594 21.2969C268.995 20.6979 268.695 19.8451 268.695 18.7383C268.695 17.5794 269.099 16.7266 269.906 16.1797C270.72 15.6263 271.944 15.3203 273.578 15.2617L275.473 15.2031V14.7246C275.473 13.6178 274.906 13.0645 273.773 13.0645C272.901 13.0645 271.876 13.3281 270.697 13.8555L269.711 11.8438C270.967 11.1862 272.361 10.8574 273.891 10.8574C275.355 10.8574 276.479 11.1764 277.26 11.8145C278.041 12.4525 278.432 13.4225 278.432 14.7246V22H276.352ZM275.473 16.9414L274.32 16.9805C273.454 17.0065 272.81 17.1628 272.387 17.4492C271.964 17.7357 271.752 18.1719 271.752 18.7578C271.752 19.5977 272.234 20.0176 273.197 20.0176C273.887 20.0176 274.438 19.819 274.848 19.4219C275.264 19.0247 275.473 18.4974 275.473 17.8398V16.9414ZM295.16 22H286.938V7.72266H295.16V10.2031H289.965V13.3379H294.799V15.8184H289.965V19.5H295.16V22ZM300.15 16.4238L296.635 11.082H300.014L302.133 14.5586L304.271 11.082H307.65L304.096 16.4238L307.816 22H304.428L302.133 18.2598L299.828 22H296.449L300.15 16.4238ZM314.076 19.8223C314.597 19.8223 315.222 19.7083 315.951 19.4805V21.6973C315.209 22.0293 314.298 22.1953 313.217 22.1953C312.025 22.1953 311.156 21.8958 310.609 21.2969C310.069 20.6914 309.799 19.7865 309.799 18.582V13.3184H308.373V12.0586L310.014 11.0625L310.873 8.75781H312.777V11.082H315.834V13.3184H312.777V18.582C312.777 19.0052 312.895 19.3177 313.129 19.5195C313.37 19.7214 313.686 19.8223 314.076 19.8223ZM324.262 10.877C324.665 10.877 325.001 10.9062 325.268 10.9648L325.043 13.7578C324.802 13.6927 324.509 13.6602 324.164 13.6602C323.214 13.6602 322.471 13.9043 321.938 14.3926C321.41 14.8809 321.146 15.5645 321.146 16.4434V22H318.168V11.082H320.424L320.863 12.918H321.01C321.348 12.306 321.804 11.8145 322.377 11.4434C322.956 11.0658 323.585 10.877 324.262 10.877ZM334.184 22L333.607 20.5156H333.529C333.028 21.1471 332.51 21.5866 331.977 21.834C331.449 22.0749 330.759 22.1953 329.906 22.1953C328.858 22.1953 328.031 21.8958 327.426 21.2969C326.827 20.6979 326.527 19.8451 326.527 18.7383C326.527 17.5794 326.931 16.7266 327.738 16.1797C328.552 15.6263 329.776 15.3203 331.41 15.2617L333.305 15.2031V14.7246C333.305 13.6178 332.738 13.0645 331.605 13.0645C330.733 13.0645 329.708 13.3281 328.529 13.8555L327.543 11.8438C328.799 11.1862 330.193 10.8574 331.723 10.8574C333.188 10.8574 334.311 11.1764 335.092 11.8145C335.873 12.4525 336.264 13.4225 336.264 14.7246V22H334.184ZM333.305 16.9414L332.152 16.9805C331.286 17.0065 330.642 17.1628 330.219 17.4492C329.796 17.7357 329.584 18.1719 329.584 18.7578C329.584 19.5977 330.066 20.0176 331.029 20.0176C331.719 20.0176 332.27 19.819 332.68 19.4219C333.096 19.0247 333.305 18.4974 333.305 17.8398V16.9414ZM343.773 22.1953C340.375 22.1953 338.676 20.3301 338.676 16.5996C338.676 14.7441 339.138 13.3281 340.062 12.3516C340.987 11.3685 342.312 10.877 344.037 10.877C345.3 10.877 346.433 11.1243 347.436 11.6191L346.557 13.9238C346.088 13.735 345.652 13.582 345.248 13.4648C344.844 13.3411 344.441 13.2793 344.037 13.2793C342.488 13.2793 341.713 14.3796 341.713 16.5801C341.713 18.7155 342.488 19.7832 344.037 19.7832C344.61 19.7832 345.141 19.7083 345.629 19.5586C346.117 19.4023 346.605 19.1615 347.094 18.8359V21.3848C346.612 21.6908 346.124 21.9023 345.629 22.0195C345.141 22.1367 344.522 22.1953 343.773 22.1953ZM354.232 19.8223C354.753 19.8223 355.378 19.7083 356.107 19.4805V21.6973C355.365 22.0293 354.454 22.1953 353.373 22.1953C352.182 22.1953 351.312 21.8958 350.766 21.2969C350.225 20.6914 349.955 19.7865 349.955 18.582V13.3184H348.529V12.0586L350.17 11.0625L351.029 8.75781H352.934V11.082H355.99V13.3184H352.934V18.582C352.934 19.0052 353.051 19.3177 353.285 19.5195C353.526 19.7214 353.842 19.8223 354.232 19.8223ZM358.197 8.25977C358.197 7.28971 358.738 6.80469 359.818 6.80469C360.899 6.80469 361.439 7.28971 361.439 8.25977C361.439 8.72201 361.303 9.08333 361.029 9.34375C360.762 9.59766 360.359 9.72461 359.818 9.72461C358.738 9.72461 358.197 9.23633 358.197 8.25977ZM361.303 22H358.324V11.082H361.303V22ZM366.811 16.5215C366.811 17.6022 366.986 18.4193 367.338 18.9727C367.696 19.526 368.275 19.8027 369.076 19.8027C369.87 19.8027 370.44 19.5293 370.785 18.9824C371.137 18.429 371.312 17.6087 371.312 16.5215C371.312 15.4408 371.137 14.6302 370.785 14.0898C370.434 13.5495 369.857 13.2793 369.057 13.2793C368.262 13.2793 367.689 13.5495 367.338 14.0898C366.986 14.6237 366.811 15.4342 366.811 16.5215ZM374.359 16.5215C374.359 18.2988 373.891 19.6888 372.953 20.6914C372.016 21.694 370.71 22.1953 369.037 22.1953C367.989 22.1953 367.064 21.9674 366.264 21.5117C365.463 21.0495 364.848 20.3887 364.418 19.5293C363.988 18.6699 363.773 17.6673 363.773 16.5215C363.773 14.7376 364.239 13.3509 365.17 12.3613C366.101 11.3717 367.41 10.877 369.096 10.877C370.144 10.877 371.068 11.1048 371.869 11.5605C372.67 12.0163 373.285 12.6706 373.715 13.5234C374.145 14.3763 374.359 15.3757 374.359 16.5215ZM386.898 22H383.92V15.623C383.92 14.8353 383.78 14.2461 383.5 13.8555C383.22 13.4583 382.774 13.2598 382.162 13.2598C381.329 13.2598 380.727 13.5397 380.355 14.0996C379.984 14.653 379.799 15.5742 379.799 16.8633V22H376.82V11.082H379.096L379.496 12.4785H379.662C379.994 11.9512 380.45 11.554 381.029 11.2871C381.615 11.0137 382.279 10.877 383.021 10.877C384.291 10.877 385.255 11.222 385.912 11.9121C386.57 12.5957 386.898 13.5853 386.898 14.8809V22Z" fill="#75BE00"/>
</svg>
